<svg xmlns="http://www.w3.org/2000/svg" xmlns:xlink="http://www.w3.org/1999/xlink" width="192.82" height="32.942" viewBox="0 0 192.82 32.942">
  <defs>
    <clipPath id="clip-path">
      <rect id="사각형_2102" data-name="사각형 2102" width="192.82" height="32.942" fill="#fff"/>
    </clipPath>
  </defs>
  <g id="cosmostationlogo" transform="translate(0 0)">
    <g id="그룹_4042" data-name="그룹 4042" transform="translate(0 0)" clip-path="url(#clip-path)">
      <path id="패스_2394" data-name="패스 2394" d="M15.315,26.526,8.5,14.715a1.938,1.938,0,0,1,0-1.937L15.315.969A1.937,1.937,0,0,1,16.993,0H30.629a1.935,1.935,0,0,1,1.677.968l6.819,11.81-3.354,1.937L29.512,3.874H18.11l-5.7,9.873,6.26,10.842Z" transform="translate(-3.153 0)" fill="#9c6cff"/>
      <path id="패스_2395" data-name="패스 2395" d="M22.133,36.922H8.5a1.936,1.936,0,0,1-1.677-.968L0,24.144l3.354-1.937,6.26,10.842h11.4l5.7-9.874L20.456,12.334,23.81,10.4l6.818,11.81a1.938,1.938,0,0,1,0,1.937L23.81,35.954a1.938,1.938,0,0,1-1.677.968" transform="translate(0 -3.98)" fill="#05d2dd"/>
      <path id="패스_2396" data-name="패스 2396" d="M78.839,28.279A6.083,6.083,0,0,1,76.484,26a6.662,6.662,0,0,1,0-6.525A6.064,6.064,0,0,1,78.848,17.2a6.92,6.92,0,0,1,3.378-.826,7.062,7.062,0,0,1,2.668.489,5.458,5.458,0,0,1,2.061,1.449L85.8,19.434a4.637,4.637,0,0,0-3.5-1.476,5.065,5.065,0,0,0-2.507.623A4.51,4.51,0,0,0,78.039,20.3a5.049,5.049,0,0,0,0,4.89A4.508,4.508,0,0,0,79.79,26.9a5.072,5.072,0,0,0,2.507.622,4.645,4.645,0,0,0,3.5-1.494l1.155,1.12a5.525,5.525,0,0,1-2.071,1.458,7.008,7.008,0,0,1-2.676.5,6.874,6.874,0,0,1-3.37-.826" transform="translate(-28.954 -6.269)" fill="#fff"/>
      <path id="패스_2397" data-name="패스 2397" d="M99.262,28.278a6.115,6.115,0,0,1-2.374-2.285,6.57,6.57,0,0,1,0-6.507A6.123,6.123,0,0,1,99.262,17.2a7.353,7.353,0,0,1,6.773,0,6.063,6.063,0,0,1,2.365,2.276,6.662,6.662,0,0,1,0,6.525,6.062,6.062,0,0,1-2.365,2.275,7.353,7.353,0,0,1-6.773,0M105.12,26.9a4.566,4.566,0,0,0,1.725-1.715,5.054,5.054,0,0,0,0-4.89,4.557,4.557,0,0,0-1.725-1.715,4.884,4.884,0,0,0-2.462-.623,4.979,4.979,0,0,0-2.48.623A4.521,4.521,0,0,0,98.435,20.3a5.05,5.05,0,0,0,0,4.89,4.53,4.53,0,0,0,1.742,1.715,4.979,4.979,0,0,0,2.48.623,4.884,4.884,0,0,0,2.462-.623" transform="translate(-36.763 -6.269)" fill="#fff"/>
      <path id="패스_2398" data-name="패스 2398" d="M122.076,28.669a5.571,5.571,0,0,1-2.053-1.129l.657-1.387a5.441,5.441,0,0,0,1.822,1.04,6.687,6.687,0,0,0,2.285.4,4.116,4.116,0,0,0,2.312-.525,1.617,1.617,0,0,0,.764-1.4,1.379,1.379,0,0,0-.418-1.041,2.788,2.788,0,0,0-1.031-.613q-.613-.214-1.733-.48a17.731,17.731,0,0,1-2.267-.675,3.744,3.744,0,0,1-1.476-1.041,2.775,2.775,0,0,1-.613-1.893,3.2,3.2,0,0,1,.524-1.8,3.6,3.6,0,0,1,1.592-1.281,6.457,6.457,0,0,1,2.649-.48,8.356,8.356,0,0,1,2.169.285,5.763,5.763,0,0,1,1.832.818L128.5,18.9a6.465,6.465,0,0,0-1.671-.756,6.258,6.258,0,0,0-1.743-.258,3.836,3.836,0,0,0-2.267.552,1.688,1.688,0,0,0-.755,1.423,1.358,1.358,0,0,0,.426,1.039,2.949,2.949,0,0,0,1.058.623,16.58,16.58,0,0,0,1.715.472,17.4,17.4,0,0,1,2.258.675,3.8,3.8,0,0,1,1.466,1.031,2.713,2.713,0,0,1,.613,1.867,3.183,3.183,0,0,1-.533,1.787,3.574,3.574,0,0,1-1.618,1.28,6.694,6.694,0,0,1-2.667.471,8.51,8.51,0,0,1-2.711-.435" transform="translate(-45.95 -6.269)" fill="#fff"/>
      <path id="패스_2399" data-name="패스 2399" d="M151.3,29.051l-.017-9.067-4.5,7.556h-.818l-4.5-7.5v9.014h-1.706V16.606h1.457l5.192,8.748,5.121-8.748h1.458L153,29.051Z" transform="translate(-53.505 -6.357)" fill="#fff"/>
      <path id="패스_2400" data-name="패스 2400" d="M168.862,28.278a6.11,6.11,0,0,1-2.374-2.285,6.571,6.571,0,0,1,0-6.507,6.119,6.119,0,0,1,2.374-2.285,7.353,7.353,0,0,1,6.773,0A6.063,6.063,0,0,1,178,19.477,6.662,6.662,0,0,1,178,26a6.061,6.061,0,0,1-2.365,2.275,7.353,7.353,0,0,1-6.773,0M174.72,26.9a4.56,4.56,0,0,0,1.724-1.715,5.054,5.054,0,0,0,0-4.89,4.552,4.552,0,0,0-1.724-1.715,4.885,4.885,0,0,0-2.463-.623,4.979,4.979,0,0,0-2.48.623,4.517,4.517,0,0,0-1.742,1.715,5.049,5.049,0,0,0,0,4.89,4.525,4.525,0,0,0,1.742,1.715,4.979,4.979,0,0,0,2.48.623,4.885,4.885,0,0,0,2.463-.623" transform="translate(-63.408 -6.269)" fill="#fff"/>
      <path id="패스_2401" data-name="패스 2401" d="M191.677,28.669a5.571,5.571,0,0,1-2.053-1.129l.657-1.387a5.44,5.44,0,0,0,1.822,1.04,6.687,6.687,0,0,0,2.285.4,4.116,4.116,0,0,0,2.312-.525,1.617,1.617,0,0,0,.764-1.4,1.379,1.379,0,0,0-.418-1.041,2.788,2.788,0,0,0-1.031-.613q-.613-.214-1.733-.48a17.773,17.773,0,0,1-2.267-.675,3.747,3.747,0,0,1-1.476-1.041,2.775,2.775,0,0,1-.613-1.893,3.2,3.2,0,0,1,.525-1.8,3.6,3.6,0,0,1,1.592-1.281,6.457,6.457,0,0,1,2.649-.48,8.363,8.363,0,0,1,2.169.285,5.768,5.768,0,0,1,1.832.818l-.586,1.423a6.46,6.46,0,0,0-1.672-.756,6.25,6.25,0,0,0-1.742-.258,3.838,3.838,0,0,0-2.267.552,1.688,1.688,0,0,0-.755,1.423A1.358,1.358,0,0,0,192.1,20.9a2.952,2.952,0,0,0,1.058.623,16.65,16.65,0,0,0,1.716.472,17.42,17.42,0,0,1,2.258.675,3.8,3.8,0,0,1,1.467,1.031,2.713,2.713,0,0,1,.613,1.867,3.179,3.179,0,0,1-.533,1.787,3.568,3.568,0,0,1-1.618,1.28,6.694,6.694,0,0,1-2.667.471,8.507,8.507,0,0,1-2.711-.435" transform="translate(-72.596 -6.269)" fill="#fff"/>
      <path id="패스_2402" data-name="패스 2402" d="M210.426,18.152h-4.267V16.606h10.295v1.547h-4.267v10.9h-1.761Z" transform="translate(-78.926 -6.357)" fill="#fff"/>
      <path id="패스_2403" data-name="패스 2403" d="M231.732,25.94h-6.614l-1.369,3.111h-1.831l5.636-12.445h1.761l5.654,12.445H233.1Zm-.623-1.423-2.685-6.1-2.685,6.1Z" transform="translate(-84.959 -6.357)" fill="#fff"/>
      <path id="패스_2404" data-name="패스 2404" d="M246.409,18.152h-4.267V16.606h10.295v1.547h-4.267v10.9h-1.761Z" transform="translate(-92.702 -6.357)" fill="#fff"/>
      <rect id="사각형_2100" data-name="사각형 2100" width="1.778" height="12.445" transform="translate(161.672 10.249)" fill="#fff"/>
      <path id="패스_2405" data-name="패스 2405" d="M272.485,28.278a6.109,6.109,0,0,1-2.373-2.285,6.571,6.571,0,0,1,0-6.507,6.117,6.117,0,0,1,2.373-2.285,7.354,7.354,0,0,1,6.774,0,6.064,6.064,0,0,1,2.365,2.276,6.663,6.663,0,0,1,0,6.525,6.062,6.062,0,0,1-2.365,2.275,7.354,7.354,0,0,1-6.774,0m5.859-1.378a4.56,4.56,0,0,0,1.724-1.715,5.053,5.053,0,0,0,0-4.89,4.551,4.551,0,0,0-1.724-1.715,4.884,4.884,0,0,0-2.462-.623,4.982,4.982,0,0,0-2.48.623,4.52,4.52,0,0,0-1.742,1.715,5.05,5.05,0,0,0,0,4.89A4.528,4.528,0,0,0,273.4,26.9a4.982,4.982,0,0,0,2.48.623,4.884,4.884,0,0,0,2.462-.623" transform="translate(-103.08 -6.269)" fill="#fff"/>
      <path id="패스_2406" data-name="패스 2406" d="M305.793,16.606V29.051h-1.458l-7.467-9.281v9.281H295.09V16.606h1.458l7.466,9.281V16.606Z" transform="translate(-112.973 -6.357)" fill="#fff"/>
      <rect id="사각형_2101" data-name="사각형 2101" width="22.362" height="1.508" transform="matrix(0.707, -0.707, 0.707, 0.707, 57.731, 23.842)" fill="#fff"/>
    </g>
  </g>
</svg>
