<svg width="193" height="33" viewBox="0 0 193 33" fill="none" xmlns="http://www.w3.org/2000/svg">
<g clip-path="url(#clip0)">
<path d="M12.162 26.526L5.347 14.715C5.17709 14.4205 5.08765 14.0865 5.08765 13.7465C5.08765 13.4065 5.17709 13.0725 5.347 12.778L12.162 0.969C12.332 0.674371 12.5766 0.4297 12.8711 0.259598C13.1657 0.0894963 13.4999 -3.8436e-05 13.84 2.3432e-07H27.476C27.8159 -0.000167028 28.1499 0.0892143 28.4443 0.259147C28.7387 0.42908 28.9831 0.673568 29.153 0.968L35.972 12.778L32.618 14.715L26.359 3.874H14.957L9.257 13.747L15.517 24.589L12.162 26.526Z" fill="#9C6CFF"/>
<path d="M22.133 32.9419H8.5C8.1601 32.942 7.82617 32.8526 7.53179 32.6826C7.23741 32.5127 6.99295 32.2683 6.823 31.9739L0 20.1639L3.354 18.2269L9.614 29.0689H21.014L26.714 19.1949L20.456 8.35392L23.81 6.41992L30.628 18.2299C30.7979 18.5244 30.8874 18.8584 30.8874 19.1984C30.8874 19.5384 30.7979 19.8724 30.628 20.1669L23.81 31.9739C23.6399 32.2681 23.3954 32.5125 23.1011 32.6824C22.8067 32.8523 22.4729 32.9418 22.133 32.9419Z" fill="#05D2DD"/>
<path d="M49.885 22.0099C48.9063 21.48 48.0917 20.6917 47.53 19.7309C46.9704 18.7346 46.6765 17.6111 46.6765 16.4684C46.6765 15.3257 46.9704 14.2022 47.53 13.2059C48.094 12.2448 48.9119 11.4577 49.894 10.9309C50.9313 10.3726 52.094 10.0882 53.272 10.1049C54.1846 10.094 55.0906 10.2601 55.94 10.5939C56.7306 10.9096 57.4364 11.4058 58.001 12.0429L56.846 13.1649C56.3999 12.6858 55.8573 12.3065 55.2541 12.0521C54.6508 11.7977 54.0005 11.6739 53.346 11.6889C52.4705 11.6764 51.6068 11.8911 50.839 12.3119C50.1066 12.7117 49.4994 13.3067 49.085 14.0309C48.6708 14.7793 48.4535 15.6206 48.4535 16.4759C48.4535 17.3313 48.6708 18.1726 49.085 18.9209C49.4998 19.6415 50.1058 20.2333 50.836 20.6309C51.604 21.0512 52.4676 21.2654 53.343 21.2529C53.9988 21.2652 54.6497 21.1383 55.253 20.8808C55.8563 20.6233 56.3981 20.241 56.843 19.7589L57.998 20.8789C57.4299 21.5188 56.7209 22.0179 55.927 22.3369C55.0762 22.6769 54.1671 22.8468 53.251 22.8369C52.0755 22.8543 50.9152 22.5699 49.881 22.0109" fill="#0E1014"/>
<path d="M62.499 22.009C61.5135 21.4789 60.6924 20.6885 60.125 19.724C59.56 18.7328 59.2629 17.6115 59.2629 16.4705C59.2629 15.3295 59.56 14.2082 60.125 13.217C60.6926 12.2524 61.5136 11.4617 62.499 10.931C63.5453 10.3881 64.7068 10.1047 65.8855 10.1047C67.0643 10.1047 68.2257 10.3881 69.272 10.931C70.2546 11.4578 71.0729 12.2453 71.637 13.207C72.1966 14.2033 72.4906 15.3268 72.4906 16.4695C72.4906 17.6122 72.1966 18.7357 71.637 19.732C71.0728 20.6934 70.2545 21.4805 69.272 22.007C68.2257 22.5499 67.0643 22.8333 65.8855 22.8333C64.7068 22.8333 63.5453 22.5499 62.499 22.007V22.009ZM68.357 20.631C69.0765 20.2258 69.6727 19.6331 70.082 18.916C70.4958 18.1675 70.7128 17.3262 70.7128 16.471C70.7128 15.6158 70.4958 14.7745 70.082 14.026C69.673 13.3086 69.0768 12.7158 68.357 12.311C67.6057 11.8899 66.7563 11.6749 65.895 11.688C65.0282 11.6762 64.1734 11.891 63.415 12.311C62.6869 12.7131 62.0837 13.3082 61.672 14.031C61.2579 14.7794 61.0407 15.6207 61.0407 16.476C61.0407 17.3313 61.2579 18.1726 61.672 18.921C62.0846 19.6415 62.6872 20.2348 63.414 20.636C64.1724 21.056 65.0272 21.2708 65.894 21.259C66.7553 21.2721 67.6047 21.0571 68.356 20.636" fill="#0E1014"/>
<path d="M76.126 22.4001C75.3694 22.1735 74.6696 21.7887 74.073 21.2711L74.73 19.8841C75.2641 20.3457 75.8829 20.6989 76.552 20.9241C77.2845 21.1895 78.0578 21.3249 78.837 21.3241C79.6425 21.3796 80.4465 21.1971 81.149 20.7991C81.3865 20.6517 81.5817 20.4452 81.7156 20.1998C81.8495 19.9545 81.9175 19.6786 81.913 19.3991C81.9202 19.206 81.8866 19.0135 81.8146 18.8342C81.7426 18.6548 81.6337 18.4926 81.495 18.3581C81.1999 18.0814 80.8481 17.8722 80.464 17.7451C80.0553 17.6024 79.4777 17.4424 78.731 17.2651C77.9611 17.0908 77.2038 16.8653 76.464 16.5901C75.8944 16.3687 75.3877 16.0113 74.988 15.5491C74.5567 15.0156 74.3383 14.3412 74.375 13.6561C74.366 13.0172 74.5485 12.3903 74.899 11.8561C75.2948 11.2843 75.8477 10.8394 76.491 10.5751C77.3305 10.2308 78.2331 10.0672 79.14 10.0951C79.8724 10.0946 80.6016 10.1905 81.309 10.3801C81.9628 10.5435 82.5829 10.8204 83.141 11.1981L82.55 12.6311C82.0318 12.301 81.4691 12.0464 80.879 11.8751C80.3131 11.7073 79.7263 11.6205 79.136 11.6171C78.3413 11.5612 77.549 11.7542 76.869 12.1691C76.6345 12.3246 76.4427 12.5362 76.3108 12.7847C76.1789 13.0332 76.1113 13.3108 76.114 13.5921C76.1068 13.7856 76.1411 13.9785 76.2146 14.1577C76.288 14.3369 76.399 14.4983 76.54 14.6311C76.845 14.9107 77.2055 15.123 77.598 15.2541C78.1608 15.442 78.7333 15.5996 79.313 15.7261C80.0801 15.8998 80.8345 16.1253 81.571 16.4011C82.1349 16.623 82.6375 16.9765 83.037 17.4321C83.4674 17.956 83.6861 18.622 83.65 19.2991C83.6547 19.9346 83.4691 20.557 83.117 21.0861C82.7152 21.6625 82.1524 22.1078 81.499 22.3661C80.6514 22.7032 79.7438 22.8634 78.832 22.8371C77.9107 22.8398 76.9952 22.6929 76.121 22.4021" fill="#0E1014"/>
<path d="M97.795 22.694L97.778 13.627L93.278 21.183H92.46L87.96 13.683V22.697H86.254V10.249H87.711L92.903 18.997L98.024 10.249H99.482L99.495 22.694H97.795Z" fill="#0E1014"/>
<path d="M105.454 22.009C104.468 21.4791 103.647 20.6887 103.08 19.724C102.515 18.7327 102.218 17.6114 102.218 16.4705C102.218 15.3295 102.515 14.2083 103.08 13.217C103.648 12.2526 104.469 11.4623 105.454 10.932C106.5 10.3891 107.662 10.1057 108.841 10.1057C110.019 10.1057 111.181 10.3891 112.227 10.932C113.21 11.4588 114.028 12.2463 114.592 13.208C115.151 14.204 115.445 15.3272 115.445 16.4695C115.445 17.6118 115.151 18.7349 114.592 19.731C114.028 20.6924 113.21 21.4795 112.227 22.006C111.181 22.5489 110.019 22.8323 108.841 22.8323C107.662 22.8323 106.5 22.5489 105.454 22.006V22.009ZM111.312 20.631C112.031 20.2259 112.627 19.6332 113.036 18.916C113.45 18.1675 113.667 17.3262 113.667 16.471C113.667 15.6157 113.45 14.7745 113.036 14.026C112.627 13.3086 112.032 12.7157 111.312 12.311C110.56 11.8897 109.711 11.6748 108.849 11.688C107.982 11.6762 107.127 11.891 106.369 12.311C105.642 12.7117 105.039 13.3051 104.627 14.026C104.213 14.7743 103.996 15.6156 103.996 16.471C103.996 17.3263 104.213 18.1676 104.627 18.916C105.039 19.6366 105.642 20.23 106.369 20.631C107.127 21.051 107.982 21.2658 108.849 21.254C109.711 21.2672 110.56 21.0522 111.312 20.631" fill="#0E1014"/>
<path d="M119.081 22.4001C118.324 22.1735 117.625 21.7887 117.028 21.2711L117.685 19.8841C118.219 20.3457 118.838 20.6989 119.507 20.9241C120.24 21.1895 121.013 21.3249 121.792 21.3241C122.598 21.3796 123.402 21.1971 124.104 20.7991C124.342 20.6517 124.537 20.4452 124.671 20.1998C124.805 19.9545 124.873 19.6786 124.868 19.3991C124.875 19.206 124.842 19.0135 124.77 18.8342C124.698 18.6548 124.589 18.4926 124.45 18.3581C124.155 18.0814 123.803 17.8722 123.419 17.7451C123.01 17.6024 122.433 17.4424 121.686 17.2651C120.916 17.0907 120.159 16.8652 119.419 16.5901C118.849 16.3686 118.343 16.0113 117.943 15.5491C117.512 15.0156 117.293 14.3412 117.33 13.6561C117.321 13.0171 117.504 12.3902 117.855 11.8561C118.251 11.2843 118.804 10.8394 119.447 10.5751C120.286 10.2308 121.189 10.0672 122.096 10.0951C122.828 10.0947 123.558 10.1905 124.265 10.3801C124.919 10.5436 125.539 10.8205 126.097 11.1981L125.511 12.6211C124.992 12.2908 124.429 12.0363 123.839 11.8651C123.273 11.6973 122.687 11.6104 122.097 11.6071C121.302 11.5514 120.51 11.7443 119.83 12.1591C119.596 12.3146 119.404 12.5262 119.272 12.7747C119.14 13.0232 119.072 13.3008 119.075 13.5821C119.067 13.7775 119.101 13.9724 119.175 14.1535C119.249 14.3345 119.361 14.4975 119.504 14.6311C119.809 14.9106 120.17 15.1229 120.562 15.2541C121.125 15.4419 121.698 15.5995 122.278 15.7261C123.045 15.8999 123.799 16.1254 124.536 16.4011C125.1 16.6228 125.603 16.9763 126.003 17.4321C126.433 17.956 126.652 18.622 126.616 19.2991C126.621 19.9346 126.435 20.5571 126.083 21.0861C125.682 21.6628 125.119 22.1081 124.465 22.3661C123.617 22.7032 122.71 22.8634 121.798 22.8371C120.877 22.8398 119.961 22.6929 119.087 22.4021" fill="#0E1014"/>
<path d="M131.5 11.795H127.233V10.249H137.528V11.796H133.261V22.696H131.5V11.795Z" fill="#0E1014"/>
<path d="M146.773 19.583H140.159L138.79 22.694H136.959L142.595 10.249H144.356L150.01 22.694H148.141L146.773 19.583ZM146.15 18.16L143.465 12.06L140.78 18.16H146.15Z" fill="#0E1014"/>
<path d="M153.707 11.795H149.44V10.249H159.735V11.796H155.468V22.696H153.707V11.795Z" fill="#0E1014"/>
<path d="M163.45 10.249H161.672V22.694H163.45V10.249Z" fill="#0E1014"/>
<path d="M169.405 22.0091C168.42 21.4791 167.599 20.6887 167.032 19.7241C166.467 18.7328 166.17 17.6116 166.17 16.4706C166.17 15.3297 166.467 14.2084 167.032 13.2171C167.599 12.2528 168.42 11.4624 169.405 10.9321C170.451 10.3891 171.613 10.1057 172.792 10.1057C173.971 10.1057 175.133 10.3891 176.179 10.9321C177.162 11.4589 177.98 12.2465 178.544 13.2081C179.103 14.2044 179.397 15.3279 179.397 16.4706C179.397 17.6133 179.103 18.7368 178.544 19.7331C177.98 20.6945 177.161 21.4816 176.179 22.0081C175.133 22.5511 173.971 22.8345 172.792 22.8345C171.613 22.8345 170.451 22.5511 169.405 22.0081V22.0091ZM175.264 20.6301C175.983 20.225 176.579 19.6323 176.988 18.9151C177.402 18.1666 177.619 17.3254 177.619 16.4701C177.619 15.6149 177.402 14.7736 176.988 14.0251C176.58 13.3077 175.984 12.7148 175.264 12.3101C174.513 11.889 173.663 11.674 172.802 11.6871C171.935 11.6755 171.08 11.8902 170.322 12.3101C169.595 12.7109 168.992 13.3043 168.58 14.0251C168.166 14.7735 167.949 15.6148 167.949 16.4701C167.949 17.3254 168.166 18.1667 168.58 18.9151C168.992 19.6358 169.594 20.2294 170.32 20.6311C171.078 21.051 171.933 21.2657 172.8 21.2541C173.661 21.2672 174.511 21.0522 175.262 20.6311" fill="#0E1014"/>
<path d="M192.82 10.249V22.694H191.362L183.895 13.413V22.694H182.117V10.249H183.575L191.041 19.53V10.249H192.82Z" fill="#0E1014"/>
<path d="M73.541 8.03211L57.731 23.842L58.7972 24.9082L74.6071 9.09826L73.541 8.03211Z" fill="#0E1014"/>
</g>
<defs>
<clipPath id="clip0">
<rect width="192.82" height="32.942" fill="white"/>
</clipPath>
</defs>
</svg>
