<svg xmlns="http://www.w3.org/2000/svg" width="261.697" height="26.022" viewBox="0 0 261.697 26.022">
  <g id="그룹_4918" data-name="그룹 4918" transform="translate(-169 356)">
    <g id="그룹_4917" data-name="그룹 4917">
      <g id="그룹_4916" data-name="그룹 4916">
        <g id="그룹_4007" data-name="그룹 4007" transform="translate(-316.003 -373)">
          <g id="그룹_101" data-name="그룹 101" transform="translate(485 17)">
            <path id="패스_1630" data-name="패스 1630" d="M964.245-656.741H953.473a1.529,1.529,0,0,0-1.325.765l-5.386,9.328a1.529,1.529,0,0,0,0,1.53l5.386,9.329,2.649-1.53-4.944-8.564,4.5-7.8h9.005l4.944,8.564,2.649-1.53-5.386-9.328a1.529,1.529,0,0,0-1.32-.764Z" transform="translate(-942.543 656.741)" fill="#9c6cff"/>
            <path id="패스_1631" data-name="패스 1631" d="M946.685-633.161l-2.649,1.53,4.944,8.563-4.5,7.8h-9.006l-4.944-8.564-2.649,1.53,5.386,9.329a1.529,1.529,0,0,0,1.325.765H945.36a1.53,1.53,0,0,0,1.325-.765l5.385-9.329a1.529,1.529,0,0,0,0-1.53Z" transform="translate(-927.878 638.23)" fill="#05d2dd"/>
          </g>
          <g id="그룹_113" data-name="그룹 113" transform="translate(522.268 24)">
            <g id="그룹_102" data-name="그룹 102" transform="translate(0 0.092)">
              <path id="패스_1632" data-name="패스 1632" d="M1102-651.277h4.352c3.42,0,5.726,2.2,5.726,5.344s-2.306,5.344-5.726,5.344H1102Zm4.291,9.711c2.84,0,4.672-1.8,4.672-4.367s-1.832-4.367-4.672-4.367h-3.161v8.734Z" transform="translate(-1101.839 651.438)" fill="#fff"/>
              <path id="패스_1633" data-name="패스 1633" d="M1105.763-641.016h-4.513v-11.011h4.513c3.466,0,5.887,2.264,5.887,5.505S1109.229-641.016,1105.763-641.016Zm-4.191-.322h4.191c3.328,0,5.565-2.083,5.565-5.183s-2.237-5.183-5.565-5.183h-4.191Zm4.13-.655h-3.322v-9.056h3.322c2.891,0,4.833,1.82,4.833,4.528s-1.942,4.528-4.835,4.528Zm-3-.322h3c2.7,0,4.511-1.69,4.511-4.206s-1.813-4.206-4.511-4.206h-3Z" transform="translate(-1101.25 652.027)" fill="#fff"/>
            </g>
            <g id="그룹_103" data-name="그룹 103" transform="translate(12.537 0.092)">
              <path id="패스_1634" data-name="패스 1634" d="M1167.881-641.566v.977h-7.558v-10.688h7.329v.977h-6.2v3.8h5.528v.962h-5.528v3.97Z" transform="translate(-1160.162 651.438)" fill="#fff"/>
              <path id="패스_1635" data-name="패스 1635" d="M1167.454-641.016h-7.881v-11.011h7.652v1.3h-6.2v3.479h5.528v1.285h-5.528v3.648h6.428Zm-7.558-.322h7.236v-.655H1160.7v-4.292h5.528v-.64H1160.7v-4.124h6.2v-.655h-7Z" transform="translate(-1159.573 652.027)" fill="#fff"/>
            </g>
            <g id="그룹_104" data-name="그룹 104" transform="translate(22.676 0.092)">
              <path id="패스_1636" data-name="패스 1636" d="M1208.623-650.3v4.2h5.528v.977h-5.528v4.535h-1.13v-10.688h7.329v.977Z" transform="translate(-1207.332 651.438)" fill="#fff"/>
              <path id="패스_1637" data-name="패스 1637" d="M1208.2-641.016h-1.452v-11.011h7.652v1.3h-6.2v3.877h5.528v1.3H1208.2Zm-1.13-.322h.807v-4.535h5.528v-.655h-5.528v-4.522h6.2v-.655h-7.007Z" transform="translate(-1206.743 652.027)" fill="#fff"/>
            </g>
            <g id="그룹_105" data-name="그룹 105" transform="translate(32.266 0.092)">
              <path id="패스_1638" data-name="패스 1638" d="M1252.106-651.277h1.13v10.688h-1.13Z" transform="translate(-1251.945 651.438)" fill="#fff"/>
              <path id="패스_1639" data-name="패스 1639" d="M1252.808-641.016h-1.452v-11.011h1.452Zm-1.13-.322h.807V-651.7h-.807Z" transform="translate(-1251.356 652.027)" fill="#fff"/>
            </g>
            <g id="그룹_106" data-name="그룹 106" transform="translate(35.744)">
              <path id="패스_1640" data-name="패스 1640" d="M1268.445-642.222l.443-.87a5.249,5.249,0,0,0,3.527,1.3c2,0,2.87-.84,2.87-1.893,0-2.932-6.581-1.13-6.581-5.085,0-1.573,1.222-2.932,3.94-2.932a6.033,6.033,0,0,1,3.313.947l-.382.9a5.5,5.5,0,0,0-2.931-.886c-1.955,0-2.825.871-2.825,1.939,0,2.932,6.581,1.161,6.581,5.054,0,1.573-1.252,2.916-3.985,2.916A5.8,5.8,0,0,1,1268.445-642.222Z" transform="translate(-1268.249 651.865)" fill="#fff"/>
              <path id="패스_1641" data-name="패스 1641" d="M1271.7-641.26a5.908,5.908,0,0,1-4.086-1.439l-.079-.083.594-1.169.157.154a5.09,5.09,0,0,0,3.415,1.252c1.722,0,2.709-.631,2.709-1.732,0-1.23-1.3-1.546-2.8-1.912-1.772-.432-3.781-.921-3.781-3.173,0-1.5,1.077-3.093,4.1-3.093a6.169,6.169,0,0,1,3.4.976l.107.075-.508,1.2-.161-.1a5.36,5.36,0,0,0-2.844-.86c-1.668,0-2.663.665-2.663,1.778,0,1.235,1.306,1.554,2.818,1.924,1.764.431,3.762.919,3.762,3.13C1275.847-642.85,1274.758-641.26,1271.7-641.26Zm-3.773-1.582a5.782,5.782,0,0,0,3.773,1.26c2.819,0,3.824-1.423,3.824-2.755,0-1.958-1.787-2.4-3.516-2.817-1.507-.368-3.065-.748-3.065-2.237,0-1.549,1.543-2.1,2.986-2.1a5.688,5.688,0,0,1,2.857.81l.256-.6a5.919,5.919,0,0,0-3.113-.845c-2.786,0-3.778,1.431-3.778,2.771,0,2,1.8,2.436,3.536,2.86,1.566.382,3.046.742,3.046,2.225,0,1.286-1.134,2.055-3.032,2.055a5.543,5.543,0,0,1-3.48-1.2Z" transform="translate(-1267.535 652.454)" fill="#fff"/>
            </g>
            <g id="그룹_107" data-name="그룹 107" transform="translate(44.818 0.092)">
              <path id="패스_1642" data-name="패스 1642" d="M1314.255-650.3H1310.5v-.977h8.643v.977h-3.756v9.711h-1.13Z" transform="translate(-1310.338 651.438)" fill="#fff"/>
              <path id="패스_1643" data-name="패스 1643" d="M1314.958-641.016h-1.452v-9.711h-3.756v-1.3h8.965v1.3h-3.756Zm-1.13-.322h.808v-9.711h3.756v-.655h-8.32v.655h3.756Z" transform="translate(-1309.749 652.027)" fill="#fff"/>
            </g>
            <g id="그룹_108" data-name="그룹 108" transform="translate(52.852 0.092)">
              <path id="패스_1644" data-name="패스 1644" d="M1356.706-643.444h-5.955l-1.283,2.855h-1.176l4.886-10.688h1.114l4.886,10.688h-1.191Zm-.412-.916-2.565-5.741-2.565,5.741Z" transform="translate(-1348.042 651.438)" fill="#fff"/>
              <path id="패스_1645" data-name="패스 1645" d="M1358.514-641.016h-1.546l-1.283-2.855h-5.746l-1.283,2.855h-1.531l5.034-11.011h1.321Zm-1.338-.322h.836l-4.739-10.366h-.908l-4.739,10.366h.82l1.283-2.855h6.164Zm-1.551-3.449H1350l2.814-6.3Zm-5.13-.322h4.633l-2.317-5.185Z" transform="translate(-1347.125 652.027)" fill="#fff"/>
            </g>
            <g id="그룹_109" data-name="그룹 109" transform="translate(63.311 0.092)">
              <path id="패스_1646" data-name="패스 1646" d="M1400.286-650.3h-3.756v-.977h8.642v.977h-3.756v9.711h-1.13Z" transform="translate(-1396.369 651.438)" fill="#fff"/>
              <path id="패스_1647" data-name="패스 1647" d="M1400.988-641.016h-1.452v-9.711h-3.756v-1.3h8.964v1.3h-3.756Zm-1.13-.322h.807v-9.711h3.756v-.655h-8.32v.655h3.756Z" transform="translate(-1395.78 652.027)" fill="#fff"/>
            </g>
            <g id="그룹_110" data-name="그룹 110" transform="translate(73.679 0.092)">
              <path id="패스_1648" data-name="패스 1648" d="M1444.766-651.277h1.13v10.688h-1.13Z" transform="translate(-1444.605 651.438)" fill="#fff"/>
              <path id="패스_1649" data-name="패스 1649" d="M1445.468-641.016h-1.452v-11.011h1.452Zm-1.13-.322h.807V-651.7h-.807Z" transform="translate(-1444.016 652.027)" fill="#fff"/>
            </g>
            <g id="그룹_111" data-name="그룹 111" transform="translate(77.267)">
              <path id="패스_1650" data-name="패스 1650" d="M1461.459-646.268a5.379,5.379,0,0,1,1.639-3.928,5.379,5.379,0,0,1,3.98-1.508,5.375,5.375,0,0,1,3.969,1.514,5.375,5.375,0,0,1,1.631,3.922,5.375,5.375,0,0,1-1.631,3.922,5.375,5.375,0,0,1-3.969,1.514,5.379,5.379,0,0,1-3.98-1.508A5.379,5.379,0,0,1,1461.459-646.268Zm10.093,0a4.33,4.33,0,0,0-1.283-3.178,4.33,4.33,0,0,0-3.191-1.25,4.347,4.347,0,0,0-3.2,1.246,4.346,4.346,0,0,0-1.3,3.182,4.347,4.347,0,0,0,1.3,3.183,4.346,4.346,0,0,0,3.2,1.245,4.33,4.33,0,0,0,3.191-1.25,4.33,4.33,0,0,0,1.283-3.178Z" transform="translate(-1461.298 651.865)" fill="#fff"/>
              <path id="패스_1651" data-name="패스 1651" d="M1466.489-641.26a5.566,5.566,0,0,1-4.087-1.564,5.566,5.566,0,0,1-1.693-4.036,5.566,5.566,0,0,1,1.693-4.036,5.566,5.566,0,0,1,4.087-1.564,5.558,5.558,0,0,1,4.08,1.567,5.558,5.558,0,0,1,1.685,4.033,5.558,5.558,0,0,1-1.685,4.033A5.558,5.558,0,0,1,1466.489-641.26Zm0-10.872a5.192,5.192,0,0,0-3.875,1.452,5.191,5.191,0,0,0-1.583,3.823,5.191,5.191,0,0,0,1.583,3.823,5.192,5.192,0,0,0,3.875,1.452,5.243,5.243,0,0,0,3.849-1.474,5.243,5.243,0,0,0,1.594-3.8,5.243,5.243,0,0,0-1.594-3.8,5.243,5.243,0,0,0-3.849-1.474Zm0,9.864a4.527,4.527,0,0,1-3.314-1.3,4.527,4.527,0,0,1-1.352-3.292,4.527,4.527,0,0,1,1.352-3.292,4.527,4.527,0,0,1,3.314-1.3,4.511,4.511,0,0,1,3.3,1.3,4.51,4.51,0,0,1,1.337,3.285,4.51,4.51,0,0,1-1.337,3.285A4.511,4.511,0,0,1,1466.489-642.268Zm0-8.856a4.163,4.163,0,0,0-3.1,1.19,4.164,4.164,0,0,0-1.244,3.077,4.164,4.164,0,0,0,1.244,3.077,4.164,4.164,0,0,0,3.1,1.19,4.149,4.149,0,0,0,3.084-1.2,4.149,4.149,0,0,0,1.229-3.071,4.149,4.149,0,0,0-1.229-3.071,4.149,4.149,0,0,0-3.084-1.2Z" transform="translate(-1460.709 652.454)" fill="#fff"/>
            </g>
            <g id="그룹_112" data-name="그룹 112" transform="translate(90.949 0.092)">
              <path id="패스_1652" data-name="패스 1652" d="M1534.042-651.277v10.688h-.932l-6.871-8.673v8.673h-1.13v-10.688h.931l6.886,8.673v-8.673Z" transform="translate(-1524.948 651.438)" fill="#fff"/>
              <path id="패스_1653" data-name="패스 1653" d="M1533.614-641.016h-1.171l-6.632-8.371v8.371h-1.453v-11.011h1.171l.048.061,6.6,8.311v-8.372h1.437Zm-1.015-.322h.693V-651.7h-.792v8.974l-7.125-8.974h-.693v10.366h.808v-8.975Z" transform="translate(-1524.359 652.027)" fill="#fff"/>
            </g>
          </g>
        </g>
        <path id="패스_2373" data-name="패스 2373" d="M8.173-4.512l-1.6,4.3L4.98-4.512H4.159L2.537-.234.976-4.512H.054l2,5.372h.933L4.555-3.215,6.106.86h.933L9.045-4.512Zm2.342-1.034a.637.637,0,0,0,.469-.183.637.637,0,0,0,.19-.466.631.631,0,0,0-.2-.448.631.631,0,0,0-.46-.17.641.641,0,0,0-.464.181.641.641,0,0,0-.195.458.633.633,0,0,0,.2.454A.633.633,0,0,0,10.515-5.546ZM10.028.86H11V-4.512h-.973ZM15.573-.153a1.226,1.226,0,0,1-.76.253.792.792,0,0,1-.635-.249A.792.792,0,0,1,13.972-.8V-3.711h1.541v-.8H13.971V-5.688H13v1.176h-.912v.8H13v2.95A1.533,1.533,0,0,0,13.446.487,1.533,1.533,0,0,0,14.7.921,1.836,1.836,0,0,0,15.877.546Zm4.349-4.409a2.33,2.33,0,0,0-1.9.811v-2.91h-.973V.86h.973V-1.907A1.6,1.6,0,0,1,18.453-3.2a1.6,1.6,0,0,1,1.269-.492c.922,0,1.45.517,1.45,1.571V.86h.973V-2.231a2.081,2.081,0,0,0-.559-1.693,2.081,2.081,0,0,0-1.664-.639ZM31.6-2.819A1.682,1.682,0,0,0,32.552-4.4c0-1.145-.912-1.835-2.544-1.835H26.825V.86H30.21c1.794,0,2.717-.7,2.717-1.916A1.715,1.715,0,0,0,31.6-2.819Zm-1.684-2.6c1.034,0,1.622.385,1.622,1.135s-.588,1.135-1.622,1.135H27.838v-2.27ZM30.17.039H27.838V-2.323H30.17c1.125,0,1.733.365,1.733,1.186S31.3.039,30.17.039ZM34.5.86h1.014v-7.1H34.5Zm8.231-7.1v5.3l-4.26-5.291H37.64V.86h1.014V-4.431L42.911.86h.831v-7.1ZM51.173.86h1.064l-3.223-7.1h-1L44.8.86h1.044l.781-1.774H50.4Zm-4.2-2.585L48.507-5.2l1.531,3.477Zm11.4-4.511V-.944L54.122-6.235h-.831V.86H54.3V-4.431L58.562.86h.831v-7.1ZM64.695.941A3.521,3.521,0,0,0,67.4-.174l-.659-.639a2.638,2.638,0,0,1-2,.851,2.68,2.68,0,0,1-1.982-.762,2.68,2.68,0,0,1-.806-1.965,2.68,2.68,0,0,1,.806-1.965,2.68,2.68,0,0,1,1.982-.762,2.629,2.629,0,0,1,2,.841l.659-.639a3.506,3.506,0,0,0-2.7-1.1,3.589,3.589,0,0,0-2.664,1,3.589,3.589,0,0,0-1.1,2.627,3.586,3.586,0,0,0,1.1,2.624,3.586,3.586,0,0,0,2.661,1Zm5.17-.963v-2.29h3.558v-.862H69.864V-5.353h3.994v-.882H68.851V.86H74V-.022Z" transform="translate(313.997 -340.187)" fill="#f0b923"/>
        <rect id="사각형_2130" data-name="사각형 2130" width="38" height="14" rx="7" transform="translate(392.697 -350.5)" fill="#f0b923"/>
        <path id="패스_2589" data-name="패스 2589" d="M5.807-3.7A1.647,1.647,0,0,0,6.69-5.214C6.69-6.3,5.807-7,4.159-7H.94V-.131H4.355C6.121-.131,7.043-.818,7.043-2A1.691,1.691,0,0,0,5.807-3.7ZM4.021-6C4.9-6,5.4-5.685,5.4-5.047s-.5.942-1.384.942H2.216V-6Zm.255,4.867H2.216V-3.114H4.276c.962,0,1.482.3,1.482.991S5.238-1.132,4.276-1.132Zm8.939-1.59A2.555,2.555,0,0,0,10.566-5.43,2.606,2.606,0,0,0,7.858-2.751,2.661,2.661,0,0,0,10.753-.062a2.656,2.656,0,0,0,2.11-.854L12.2-1.672a1.878,1.878,0,0,1-1.423.569,1.586,1.586,0,0,1-1.7-1.256H13.2C13.206-2.476,13.216-2.624,13.216-2.722ZM10.566-4.449a1.426,1.426,0,0,1,1.482,1.276H9.075A1.448,1.448,0,0,1,10.566-4.449ZM17.2-1.289a1.1,1.1,0,0,1-.687.216c-.471,0-.726-.275-.726-.785V-4.351h1.4v-.981h-1.4v-1.2H14.56v1.2H13.7v.981h.864v2.522A1.61,1.61,0,0,0,16.366-.062a1.927,1.927,0,0,0,1.178-.353ZM20.556-5.43a3.684,3.684,0,0,0-2.218.648l.481.893a2.594,2.594,0,0,1,1.59-.52c.873,0,1.305.422,1.305,1.138v.079H20.359c-1.59,0-2.178.687-2.178,1.56,0,.913.756,1.57,1.953,1.57a1.857,1.857,0,0,0,1.649-.707v.638H22.94V-3.2C22.94-4.714,22.067-5.43,20.556-5.43ZM20.389-.955c-.628,0-1-.285-1-.726,0-.383.226-.7,1.06-.7h1.266v.608A1.336,1.336,0,0,1,20.389-.955Z" transform="translate(400.06 -340.001)"/>
      </g>
    </g>
  </g>
</svg>
