<svg width="1000" height="190" viewBox="0 0 1000 190" fill="none" xmlns="http://www.w3.org/2000/svg">
<path d="M157.847 7.41893e-07H79.4877C77.5339 -0.000712991 75.6143 0.513567 73.9223 1.49048C72.2302 2.46739 70.8254 3.87258 69.8491 5.56499L30.6695 73.4202C29.6919 75.1119 29.1772 77.0314 29.1772 78.9852C29.1772 80.9391 29.6919 82.8585 30.6695 84.5502L69.8491 152.413L89.1188 141.283L53.1546 78.9852L85.8892 22.2453H151.394L187.359 84.5427L206.629 73.4131L167.449 5.55789C166.475 3.87216 165.076 2.47153 163.391 1.49625C161.706 0.520971 159.794 0.00492456 157.847 7.41893e-07V7.41893e-07Z" fill="#9C6CFF"/>
<path d="M136.787 36.874L117.517 48.0039L153.482 110.294L120.747 167.034H55.2343L19.2701 104.737L0 115.866L39.18 183.729C40.1563 185.421 41.5607 186.827 43.2528 187.804C44.9448 188.781 46.8644 189.294 48.8182 189.294H127.149C129.102 189.294 131.022 188.78 132.714 187.803C134.405 186.826 135.81 185.421 136.787 183.729L175.96 115.866C176.937 114.175 177.452 112.255 177.452 110.301C177.452 108.347 176.937 106.428 175.96 104.737L136.787 36.874Z" fill="#05D2DD"/>
<path d="M272.25 52.7613H303.909C328.787 52.7613 345.562 68.7648 345.562 91.6354C345.562 114.506 328.787 130.51 303.909 130.51H272.25V52.7613ZM303.465 123.403C324.124 123.403 337.451 110.309 337.451 91.6354C337.451 72.9621 324.124 59.8682 303.465 59.8682H280.471V123.403H303.465Z" fill="black"/>
<path d="M303.909 131.688H271.08V51.59H303.909C329.122 51.59 346.734 68.0592 346.734 91.6354C346.734 115.212 329.122 131.688 303.909 131.688ZM273.423 129.345H303.909C328.118 129.345 344.391 114.193 344.391 91.6425C344.391 69.092 328.118 53.9396 303.909 53.9396H273.423V129.345ZM303.466 124.581H279.3V58.7041H303.466C324.496 58.7041 338.623 71.9436 338.623 91.6425C338.623 111.341 324.495 124.581 303.451 124.581H303.466ZM281.643 122.238H303.466C323.106 122.238 336.28 109.945 336.28 91.6425C336.28 73.3402 323.092 61.0466 303.466 61.0466H281.643V122.238Z" fill="black"/>
<path d="M418.43 123.403V130.51H363.45V52.7613H416.764V59.8682H371.663V87.5107H411.875V94.5085H371.663V123.388L418.43 123.403Z" fill="black"/>
<path d="M419.609 131.688H362.28V51.59H417.943V61.0466H372.842V86.3541H413.055V95.7015H372.842V122.238H419.602L419.609 131.688ZM364.629 129.345H417.266V124.581H370.478V93.3594H410.691V88.7037H370.478V58.7041H415.579V53.9396H364.659L364.629 129.345Z" fill="black"/>
<path d="M445.426 59.8682V90.4206H485.638V97.5276H445.426V130.517H437.206V52.7684H490.52V59.8753L445.426 59.8682Z" fill="black"/>
<path d="M446.633 131.688H436.071V51.59H491.735V61.0466H446.633V89.2494H486.846V98.706H446.633V131.688ZM438.413 129.345H444.283V96.3564H484.497V91.5914H444.283V58.697H489.385V53.9321H438.413V129.345Z" fill="black"/>
<path d="M506.966 52.7613H515.186V130.51H506.966V52.7613Z" fill="black"/>
<path d="M516.358 131.688H505.796V51.59H516.358V131.688ZM508.138 129.345H514.009V53.9685H508.138V129.345Z" fill="black"/>
<path d="M532.52 121.068L535.743 114.739C542.834 120.95 551.974 124.319 561.4 124.196C575.949 124.196 582.278 118.085 582.278 110.425C582.278 89.0967 534.405 102.205 534.405 73.4349C534.405 61.9923 543.294 52.1064 563.066 52.1064C571.598 52.011 579.973 54.4051 587.166 58.9954L584.386 65.5425C578.033 61.4192 570.64 59.1839 563.066 59.0971C548.845 59.0971 542.515 65.4332 542.515 73.2022C542.515 94.5307 590.388 81.6479 590.388 109.967C590.388 121.41 581.281 131.179 561.4 131.179C550.848 131.541 540.542 127.933 532.52 121.068V121.068Z" fill="black"/>
<path d="M561.393 132.35C550.517 132.75 539.895 129.009 531.67 121.882L531.096 121.279L535.417 112.775L536.559 113.895C543.435 119.887 552.281 123.13 561.401 123.003C573.927 123.003 581.107 118.413 581.107 110.404C581.107 101.456 571.65 99.157 560.739 96.4946C547.848 93.3521 533.234 89.7951 533.234 73.4132C533.234 62.5017 541.069 50.9135 563.059 50.9135C571.832 50.8079 580.443 53.2764 587.828 58.0134L588.607 58.5591L584.911 67.2884L583.74 66.5607C577.571 62.5678 570.4 60.3993 563.052 60.3048C550.918 60.3048 543.68 65.1424 543.68 73.2387C543.68 82.2226 553.181 84.5432 564.18 87.2347C577.012 90.3699 591.545 93.9199 591.545 110.003C591.56 120.784 583.638 132.35 561.393 132.35ZM533.947 120.842C541.724 127.047 551.448 130.295 561.393 130.008C581.899 130.008 589.211 119.657 589.211 109.967C589.211 95.7239 576.212 92.5085 563.634 89.4751C552.672 86.7981 541.338 84.0339 541.338 73.2023C541.338 61.9344 552.562 57.9259 563.059 57.9259C570.386 58.015 577.559 60.0484 583.842 63.8181L585.704 59.4537C578.87 55.3482 571.031 53.2204 563.059 53.3071C542.793 53.3071 535.577 63.7167 535.577 73.4643C535.577 88.013 548.671 91.1845 561.299 94.2689C572.691 97.0477 583.457 99.6663 583.457 110.454C583.457 119.809 575.208 125.403 561.401 125.403C552.215 125.462 543.283 122.383 536.086 116.674L533.947 120.842Z" fill="black"/>
<path d="M625.596 59.8682H598.281V52.7613H661.153V59.8682H633.83V130.51H625.61L625.596 59.8682Z" fill="black"/>
<path d="M634.995 131.688H624.433V61.0466H597.11V51.59H662.325V61.0466H635.002L634.995 131.688ZM626.775 129.345H632.653V58.7041H659.975V53.9396H599.453V58.7041H626.775V129.345Z" fill="black"/>
<path d="M718.57 109.741H675.251L665.918 130.51H657.364L692.906 52.7613H701.01L736.552 130.51H727.889L718.57 109.741ZM715.573 103.078L696.914 61.3156L678.255 103.078H715.573Z" fill="black"/>
<path d="M738.393 131.688H727.147L717.814 110.92H676.015L666.682 131.688H655.545L692.165 51.59H701.774L738.393 131.688ZM728.66 129.345H734.741L700.268 53.9396H693.663L659.189 129.345H665.155L674.488 108.577H719.326L728.66 129.345ZM717.377 104.256H676.459L696.929 58.4279L717.377 104.256ZM680.06 101.914H713.762L696.907 64.1963L680.06 101.914Z" fill="black"/>
<path d="M760.122 59.8682H732.8V52.7613H795.665V59.8682H768.342V130.51H760.122V59.8682Z" fill="black"/>
<path d="M769.512 131.688H758.95V61.0466H731.627V51.59H796.835V61.0466H769.512V131.688ZM761.292 129.345H767.163V58.7041H794.485V53.9396H733.962V58.7041H761.285L761.292 129.345Z" fill="black"/>
<path d="M808.218 52.7613H816.438V130.51H808.218V52.7613Z" fill="black"/>
<path d="M817.61 131.688H807.047V51.59H817.61V131.688ZM809.39 129.345H815.26V53.9685H809.39V129.345Z" fill="black"/>
<path d="M834.319 91.6354C834.257 86.3118 835.282 81.0319 837.331 76.1183C839.381 71.2047 842.412 66.7609 846.238 63.0592C850.064 59.3574 854.607 56.4758 859.585 54.59C864.564 52.7042 869.875 51.8542 875.193 52.0921C880.502 51.8693 885.8 52.7304 890.764 54.6233C895.728 56.5163 900.255 59.4012 904.067 63.1018C907.879 66.8024 910.897 71.2413 912.937 76.1472C914.977 81.053 915.995 86.3228 915.93 91.6354C915.995 96.9479 914.977 102.218 912.937 107.124C910.897 112.03 907.879 116.468 904.067 120.169C900.255 123.87 895.728 126.754 890.764 128.647C885.8 130.54 880.502 131.402 875.193 131.179C869.875 131.417 864.564 130.567 859.585 128.681C854.607 126.795 850.064 123.913 846.238 120.212C842.412 116.51 839.381 112.066 837.331 107.152C835.282 102.239 834.257 96.9589 834.319 91.6354ZM907.739 91.6354C907.838 87.3497 907.061 83.089 905.457 79.1139C903.852 75.1388 901.453 71.5331 898.406 68.5176C895.359 65.5021 891.729 63.1402 887.738 61.5767C883.746 60.0131 879.478 59.2809 875.193 59.4247C870.898 59.2715 866.616 59.9958 862.61 61.5536C858.604 63.1114 854.957 65.4699 851.894 68.4847C848.83 71.4996 846.413 75.1072 844.791 79.0877C843.168 83.0682 842.375 87.3378 842.459 91.6354C842.375 95.9329 843.168 100.202 844.791 104.183C846.413 108.164 848.83 111.772 851.894 114.786C854.957 117.801 858.604 120.159 862.61 121.717C866.616 123.275 870.898 123.999 875.193 123.846C879.478 123.99 883.746 123.258 887.738 121.694C891.729 120.131 895.359 117.769 898.406 114.753C901.453 111.738 903.852 108.132 905.457 104.157C907.061 100.182 907.838 95.921 907.739 91.6354V91.6354Z" fill="black"/>
<path d="M875.194 132.35C869.727 132.56 864.273 131.66 859.163 129.704C854.053 127.748 849.392 124.777 845.463 120.97C841.533 117.163 838.416 112.598 836.3 107.553C834.183 102.507 833.111 97.0849 833.148 91.6134C833.111 86.142 834.183 80.7198 836.3 75.6741C838.416 70.6285 841.533 66.064 845.463 62.2567C849.392 58.4494 854.053 55.4779 859.163 53.522C864.273 51.5662 869.727 50.6662 875.194 50.8767C880.655 50.673 886.1 51.5783 891.201 53.538C896.302 55.4977 900.953 58.4715 904.872 62.2789C908.792 66.0863 911.899 70.6487 914.006 75.6906C916.113 80.7324 917.176 86.1492 917.131 91.6134C917.176 97.0777 916.113 102.494 914.006 107.536C911.899 112.578 908.792 117.141 904.872 120.948C900.953 124.755 896.302 127.729 891.201 129.688C886.1 131.648 880.655 132.553 875.194 132.35V132.35ZM875.194 53.2628C870.023 52.9967 864.852 53.7969 860.003 55.6137C855.153 57.4305 850.73 60.2249 847.006 63.8235C843.283 67.4222 840.339 71.7484 838.358 76.5328C836.377 81.3172 835.401 86.4577 835.491 91.6352C835.401 96.8127 836.377 101.953 838.358 106.738C840.339 111.522 843.283 115.848 847.006 119.446C850.73 123.045 855.153 125.84 860.003 127.657C864.852 129.473 870.023 130.274 875.194 130.008C880.343 130.204 885.48 129.355 890.292 127.512C895.104 125.669 899.492 122.87 903.192 119.284C906.893 115.698 909.828 111.399 911.821 106.647C913.814 101.895 914.824 96.7881 914.788 91.6352C914.824 86.4823 913.814 81.3758 911.821 76.6238C909.828 71.8718 906.893 67.5727 903.192 63.9865C899.492 60.4003 895.104 57.6011 890.292 55.758C885.48 53.9149 880.343 53.0661 875.194 53.2628ZM875.194 125.017C870.747 125.154 866.319 124.389 862.175 122.767C858.032 121.145 854.26 118.7 851.088 115.581C847.916 112.461 845.409 108.73 843.719 104.615C842.028 100.499 841.189 96.084 841.252 91.6352C841.189 87.1864 842.028 82.771 843.719 78.6555C845.409 74.54 847.916 70.8096 851.088 67.6898C854.26 64.57 858.032 62.1253 862.175 60.5034C866.319 58.8815 870.747 58.1162 875.194 58.2532C879.627 58.1306 884.038 58.9076 888.162 60.5376C892.286 62.1675 896.037 64.6165 899.188 67.7364C902.34 70.8564 904.826 74.5826 906.497 78.6902C908.168 82.7977 908.989 87.2014 908.911 91.6352C908.989 96.0689 908.168 100.473 906.497 104.58C904.826 108.688 902.34 112.414 899.188 115.534C896.037 118.654 892.286 121.103 888.162 122.733C884.038 124.363 879.627 125.14 875.194 125.017V125.017ZM875.194 60.5953C871.044 60.4154 866.902 61.091 863.024 62.5799C859.147 64.0689 855.617 66.3393 852.654 69.2505C849.691 72.1616 847.358 75.651 845.801 79.5018C844.244 83.3526 843.495 87.4828 843.602 91.6352C843.495 95.7876 844.244 99.9173 845.801 103.768C847.358 107.619 849.691 111.108 852.654 114.019C855.617 116.931 859.147 119.201 863.024 120.69C866.902 122.179 871.044 122.855 875.194 122.675C879.33 122.84 883.456 122.153 887.315 120.656C891.174 119.159 894.684 116.884 897.626 113.973C900.569 111.062 902.881 107.576 904.419 103.734C905.958 99.8906 906.689 95.7727 906.568 91.6352C906.689 87.4976 905.958 83.3793 904.419 79.5364C902.881 75.6936 900.569 72.2083 897.626 69.2971C894.684 66.3859 891.174 64.1111 887.315 62.6141C883.456 61.1171 879.33 60.4299 875.194 60.5953V60.5953Z" fill="black"/>
<path d="M998.828 52.7613V130.51H992.048L942.066 67.4187V130.51H933.846V52.7613H940.619L990.71 115.852V52.7613H998.828Z" fill="black"/>
<path d="M1000 131.688H991.482L943.238 70.794V131.688H932.669V51.59H941.187L941.536 52.0336L989.547 112.491V51.59H1000V131.688ZM992.616 129.345H997.658V53.9685H991.896V119.249L940.066 53.9685H935.025V129.375H940.903V64.087L992.616 129.345Z" fill="black"/>
</svg>
