<svg xmlns="http://www.w3.org/2000/svg" width="261.7" height="26.02" viewBox="0 0 261.7 26.02">
  <g id="defistation_alpha" transform="translate(-485 -17)">
    <g id="그룹_4007" data-name="그룹 4007">
      <g id="그룹_101" data-name="그룹 101" transform="translate(485 17)">
        <path id="패스_1630" data-name="패스 1630" d="M964.245-656.741H953.473a1.529,1.529,0,0,0-1.325.765l-5.386,9.328a1.529,1.529,0,0,0,0,1.53l5.386,9.329,2.649-1.53-4.944-8.564,4.5-7.8h9.005l4.944,8.564,2.649-1.53-5.386-9.328A1.529,1.529,0,0,0,964.245-656.741Z" transform="translate(-942.543 656.741)" fill="#9c6cff"/>
        <path id="패스_1631" data-name="패스 1631" d="M946.685-633.161l-2.649,1.53,4.944,8.563-4.5,7.8h-9.006l-4.944-8.564-2.649,1.53,5.386,9.329a1.529,1.529,0,0,0,1.325.765H945.36a1.53,1.53,0,0,0,1.325-.765l5.385-9.329a1.529,1.529,0,0,0,0-1.53Z" transform="translate(-927.878 638.23)" fill="#05d2dd"/>
      </g>
      <g id="그룹_113" data-name="그룹 113" transform="translate(522.268 24)">
        <g id="그룹_102" data-name="그룹 102" transform="translate(0 0.092)">
          <path id="패스_1632" data-name="패스 1632" d="M1102-651.277h4.352c3.42,0,5.726,2.2,5.726,5.344s-2.306,5.344-5.726,5.344H1102Zm4.291,9.711c2.84,0,4.672-1.8,4.672-4.367s-1.832-4.367-4.672-4.367h-3.161v8.734Z" transform="translate(-1101.839 651.438)" fill="#fff"/>
          <path id="패스_1633" data-name="패스 1633" d="M1105.763-641.016h-4.513v-11.011h4.513c3.466,0,5.887,2.264,5.887,5.505S1109.229-641.016,1105.763-641.016Zm-4.191-.322h4.191c3.328,0,5.565-2.083,5.565-5.183s-2.237-5.183-5.565-5.183h-4.191Zm4.13-.655h-3.322v-9.056h3.322c2.891,0,4.833,1.82,4.833,4.528S1108.593-641.993,1105.7-641.993Zm-3-.322h3c2.7,0,4.511-1.69,4.511-4.206s-1.813-4.206-4.511-4.206h-3Z" transform="translate(-1101.25 652.027)" fill="#fff"/>
        </g>
        <g id="그룹_103" data-name="그룹 103" transform="translate(12.537 0.092)">
          <path id="패스_1634" data-name="패스 1634" d="M1167.881-641.566v.977h-7.558v-10.688h7.329v.977h-6.2v3.8h5.528v.962h-5.528v3.97Z" transform="translate(-1160.162 651.438)" fill="#fff"/>
          <path id="패스_1635" data-name="패스 1635" d="M1167.454-641.016h-7.881v-11.011h7.652v1.3h-6.2v3.479h5.528v1.285h-5.528v3.648h6.428Zm-7.558-.322h7.236v-.655H1160.7v-4.292h5.528v-.64H1160.7v-4.124h6.2v-.655H1159.9Z" transform="translate(-1159.573 652.027)" fill="#fff"/>
        </g>
        <g id="그룹_104" data-name="그룹 104" transform="translate(22.676 0.092)">
          <path id="패스_1636" data-name="패스 1636" d="M1208.623-650.3v4.2h5.528v.977h-5.528v4.535h-1.13v-10.688h7.329v.977Z" transform="translate(-1207.332 651.438)" fill="#fff"/>
          <path id="패스_1637" data-name="패스 1637" d="M1208.2-641.016h-1.452v-11.011h7.652v1.3h-6.2v3.877h5.528v1.3H1208.2Zm-1.13-.322h.807v-4.535h5.528v-.655h-5.528v-4.522h6.2v-.655h-7.007Z" transform="translate(-1206.743 652.027)" fill="#fff"/>
        </g>
        <g id="그룹_105" data-name="그룹 105" transform="translate(32.266 0.092)">
          <path id="패스_1638" data-name="패스 1638" d="M1252.106-651.277h1.13v10.688h-1.13Z" transform="translate(-1251.945 651.438)" fill="#fff"/>
          <path id="패스_1639" data-name="패스 1639" d="M1252.808-641.016h-1.452v-11.011h1.452Zm-1.13-.322h.807V-651.7h-.807Z" transform="translate(-1251.356 652.027)" fill="#fff"/>
        </g>
        <g id="그룹_106" data-name="그룹 106" transform="translate(35.744)">
          <path id="패스_1640" data-name="패스 1640" d="M1268.445-642.222l.443-.87a5.249,5.249,0,0,0,3.527,1.3c2,0,2.87-.84,2.87-1.893,0-2.932-6.581-1.13-6.581-5.085,0-1.573,1.222-2.932,3.94-2.932a6.033,6.033,0,0,1,3.313.947l-.382.9a5.5,5.5,0,0,0-2.931-.886c-1.955,0-2.825.871-2.825,1.939,0,2.932,6.581,1.161,6.581,5.054,0,1.573-1.252,2.916-3.985,2.916A5.8,5.8,0,0,1,1268.445-642.222Z" transform="translate(-1268.249 651.865)" fill="#fff"/>
          <path id="패스_1641" data-name="패스 1641" d="M1271.7-641.26a5.908,5.908,0,0,1-4.086-1.439l-.079-.083.594-1.169.157.154a5.09,5.09,0,0,0,3.415,1.252c1.722,0,2.709-.631,2.709-1.732,0-1.23-1.3-1.546-2.8-1.912-1.772-.432-3.781-.921-3.781-3.173,0-1.5,1.077-3.093,4.1-3.093a6.169,6.169,0,0,1,3.405.976l.107.075-.508,1.2-.161-.1a5.361,5.361,0,0,0-2.844-.86c-1.668,0-2.663.665-2.663,1.778,0,1.235,1.306,1.554,2.818,1.924,1.764.431,3.762.919,3.762,3.13C1275.847-642.85,1274.758-641.26,1271.7-641.26Zm-3.773-1.582a5.782,5.782,0,0,0,3.773,1.26c2.819,0,3.824-1.423,3.824-2.755,0-1.958-1.787-2.4-3.516-2.817-1.507-.368-3.065-.748-3.065-2.237,0-1.549,1.543-2.1,2.986-2.1a5.688,5.688,0,0,1,2.857.81l.256-.6a5.92,5.92,0,0,0-3.113-.845c-2.786,0-3.778,1.431-3.778,2.771,0,2,1.8,2.436,3.536,2.86,1.566.382,3.046.742,3.046,2.225,0,1.286-1.134,2.055-3.032,2.055a5.543,5.543,0,0,1-3.48-1.2Z" transform="translate(-1267.535 652.454)" fill="#fff"/>
        </g>
        <g id="그룹_107" data-name="그룹 107" transform="translate(44.818 0.092)">
          <path id="패스_1642" data-name="패스 1642" d="M1314.255-650.3H1310.5v-.977h8.643v.977h-3.756v9.711h-1.13Z" transform="translate(-1310.338 651.438)" fill="#fff"/>
          <path id="패스_1643" data-name="패스 1643" d="M1314.958-641.016h-1.452v-9.711h-3.756v-1.3h8.965v1.3h-3.756Zm-1.13-.322h.808v-9.711h3.756v-.655h-8.32v.655h3.756Z" transform="translate(-1309.749 652.027)" fill="#fff"/>
        </g>
        <g id="그룹_108" data-name="그룹 108" transform="translate(52.852 0.092)">
          <path id="패스_1644" data-name="패스 1644" d="M1356.706-643.444h-5.955l-1.283,2.855h-1.176l4.886-10.688h1.114l4.886,10.688h-1.191Zm-.412-.916-2.565-5.741-2.565,5.741Z" transform="translate(-1348.042 651.438)" fill="#fff"/>
          <path id="패스_1645" data-name="패스 1645" d="M1358.514-641.016h-1.546l-1.283-2.855h-5.746l-1.283,2.855h-1.531l5.034-11.011h1.321Zm-1.338-.322h.836l-4.739-10.366h-.908l-4.739,10.366h.82l1.283-2.855h6.164Zm-1.551-3.449H1350l2.814-6.3Zm-5.13-.322h4.633l-2.317-5.185Z" transform="translate(-1347.125 652.027)" fill="#fff"/>
        </g>
        <g id="그룹_109" data-name="그룹 109" transform="translate(63.311 0.092)">
          <path id="패스_1646" data-name="패스 1646" d="M1400.286-650.3h-3.756v-.977h8.642v.977h-3.756v9.711h-1.13Z" transform="translate(-1396.369 651.438)" fill="#fff"/>
          <path id="패스_1647" data-name="패스 1647" d="M1400.988-641.016h-1.452v-9.711h-3.756v-1.3h8.964v1.3h-3.756Zm-1.13-.322h.807v-9.711h3.756v-.655h-8.32v.655h3.756Z" transform="translate(-1395.78 652.027)" fill="#fff"/>
        </g>
        <g id="그룹_110" data-name="그룹 110" transform="translate(73.679 0.092)">
          <path id="패스_1648" data-name="패스 1648" d="M1444.766-651.277h1.13v10.688h-1.13Z" transform="translate(-1444.605 651.438)" fill="#fff"/>
          <path id="패스_1649" data-name="패스 1649" d="M1445.468-641.016h-1.452v-11.011h1.452Zm-1.13-.322h.807V-651.7h-.807Z" transform="translate(-1444.016 652.027)" fill="#fff"/>
        </g>
        <g id="그룹_111" data-name="그룹 111" transform="translate(77.267)">
          <path id="패스_1650" data-name="패스 1650" d="M1461.459-646.268a5.379,5.379,0,0,1,5.619-5.436,5.375,5.375,0,0,1,5.6,5.436,5.375,5.375,0,0,1-5.6,5.436A5.379,5.379,0,0,1,1461.459-646.268Zm10.093,0a4.33,4.33,0,0,0-4.474-4.428,4.346,4.346,0,0,0-4.5,4.428,4.346,4.346,0,0,0,4.5,4.428A4.33,4.33,0,0,0,1471.552-646.268Z" transform="translate(-1461.298 651.865)" fill="#fff"/>
          <path id="패스_1651" data-name="패스 1651" d="M1466.489-641.26a5.566,5.566,0,0,1-5.78-5.6,5.566,5.566,0,0,1,5.78-5.6,5.558,5.558,0,0,1,5.765,5.6A5.558,5.558,0,0,1,1466.489-641.26Zm0-10.872a5.192,5.192,0,0,0-5.458,5.275,5.192,5.192,0,0,0,5.458,5.275,5.243,5.243,0,0,0,5.443-5.275A5.243,5.243,0,0,0,1466.489-652.132Zm0,9.864a4.527,4.527,0,0,1-4.666-4.589,4.527,4.527,0,0,1,4.666-4.589,4.511,4.511,0,0,1,4.635,4.589A4.511,4.511,0,0,1,1466.489-642.268Zm0-8.856a4.164,4.164,0,0,0-4.343,4.267,4.164,4.164,0,0,0,4.343,4.267,4.149,4.149,0,0,0,4.313-4.267A4.149,4.149,0,0,0,1466.489-651.124Z" transform="translate(-1460.709 652.454)" fill="#fff"/>
        </g>
        <g id="그룹_112" data-name="그룹 112" transform="translate(90.949 0.092)">
          <path id="패스_1652" data-name="패스 1652" d="M1534.042-651.277v10.688h-.932l-6.871-8.673v8.673h-1.13v-10.688h.931l6.886,8.673v-8.673Z" transform="translate(-1524.948 651.438)" fill="#fff"/>
          <path id="패스_1653" data-name="패스 1653" d="M1533.614-641.016h-1.171l-6.632-8.371v8.371h-1.453v-11.011h1.171l.048.061,6.6,8.311v-8.372h1.437Zm-1.015-.322h.693V-651.7h-.792v8.974l-7.125-8.974h-.693v10.366h.808v-8.975Z" transform="translate(-1524.359 652.027)" fill="#fff"/>
        </g>
      </g>
    </g>
    <path id="패스_2373" data-name="패스 2373" d="M8.173-4.512l-1.6,4.3L4.98-4.512H4.159L2.537-.234.976-4.512H.054l2,5.372h.933L4.555-3.215,6.106.86h.933L9.045-4.512Zm2.342-1.034a.637.637,0,0,0,.659-.649.631.631,0,0,0-.659-.618.641.641,0,0,0-.659.639A.633.633,0,0,0,10.515-5.546ZM10.028.86H11V-4.512h-.973ZM15.573-.153a1.226,1.226,0,0,1-.76.253.792.792,0,0,1-.841-.9V-3.711h1.541v-.8H13.971V-5.688H13v1.176h-.912v.8H13v2.95A1.533,1.533,0,0,0,14.7.921,1.836,1.836,0,0,0,15.877.546Zm4.349-4.409a2.33,2.33,0,0,0-1.9.811V-6.661h-.973V.86h.973V-1.907a1.6,1.6,0,0,1,1.7-1.784c.922,0,1.45.517,1.45,1.571V.86h.973V-2.231A2.081,2.081,0,0,0,19.922-4.563ZM31.6-2.819A1.682,1.682,0,0,0,32.552-4.4c0-1.145-.912-1.835-2.544-1.835H26.825V.86H30.21c1.794,0,2.717-.7,2.717-1.916A1.715,1.715,0,0,0,31.6-2.819ZM29.916-5.414c1.034,0,1.622.385,1.622,1.135s-.588,1.135-1.622,1.135H27.838V-5.414ZM30.17.039H27.838V-2.323H30.17c1.125,0,1.733.365,1.733,1.186S31.295.039,30.17.039ZM34.5.86h1.014v-7.1H34.5Zm8.231-7.1V-.944L38.471-6.235H37.64V.86h1.014V-4.431L42.911.86h.831v-7.1ZM51.173.86h1.064l-3.223-7.1h-1L44.8.86h1.044l.781-1.774h3.771Zm-4.2-2.585L48.507-5.2l1.531,3.477Zm11.4-4.511V-.944L54.122-6.235h-.831V.86H54.3V-4.431L58.562.86h.831v-7.1ZM64.695.941A3.521,3.521,0,0,0,67.4-.174l-.659-.639a2.638,2.638,0,0,1-2,.851,2.68,2.68,0,0,1-2.788-2.727,2.68,2.68,0,0,1,2.788-2.727,2.629,2.629,0,0,1,2,.841l.659-.639a3.506,3.506,0,0,0-2.7-1.1,3.589,3.589,0,0,0-3.761,3.629A3.586,3.586,0,0,0,64.695.941Zm5.17-.963V-2.312h3.558v-.862H69.864V-5.353h3.994v-.882H68.851V.86H74V-.022Z" transform="translate(630 32.813)" fill="#f0b923"/>
    <rect id="사각형_2130" data-name="사각형 2130" width="38" height="14" rx="7" transform="translate(708.7 22.5)" fill="#f0b923"/>
    <path id="패스_2433" data-name="패스 2433" d="M5.562,0H6.786L3.942-6.3H2.79L-.045,0H1.161l.621-1.458h3.15ZM2.178-2.376,3.357-5.13,4.545-2.376ZM7.479,0H8.6V-6.678H7.479Zm5.265-4.86a1.982,1.982,0,0,0-1.593.684v-.63H10.08V1.746H11.2V-.585a1.975,1.975,0,0,0,1.539.648A2.341,2.341,0,0,0,15.183-2.4,2.339,2.339,0,0,0,12.744-4.86ZM12.618-.9a1.4,1.4,0,0,1-1.431-1.5,1.4,1.4,0,0,1,1.431-1.5A1.4,1.4,0,0,1,14.04-2.4,1.4,1.4,0,0,1,12.618-.9Zm6.363-3.96a2.142,2.142,0,0,0-1.6.612v-2.43H16.254V0h1.125V-2.43A1.276,1.276,0,0,1,18.72-3.879c.72,0,1.143.414,1.143,1.269V0h1.125V-2.754A1.878,1.878,0,0,0,18.981-4.86Zm5.274,0a3.379,3.379,0,0,0-2.034.594l.441.819a2.379,2.379,0,0,1,1.458-.477c.8,0,1.2.387,1.2,1.044v.072H24.075c-1.458,0-2,.63-2,1.431,0,.837.693,1.44,1.791,1.44A1.7,1.7,0,0,0,25.38-.585V0h1.062V-2.817C26.442-4.2,25.641-4.86,24.255-4.86ZM24.1-.756c-.576,0-.918-.261-.918-.666,0-.351.207-.639.972-.639h1.161V-1.5A1.225,1.225,0,0,1,24.1-.756Z" transform="translate(714.7 32.5)" fill="#0e1014"/>
  </g>
</svg>
