<svg xmlns="http://www.w3.org/2000/svg" width="16" height="16" viewBox="0 0 16 16">
  <g id="official_ic" transform="translate(-500 -260)">
    <g id="url" transform="translate(501.597 260.968)">
      <path id="패스_2421" data-name="패스 2421" d="M152.077,3.817a3.531,3.531,0,0,0,.552,5.329.146.146,0,0,0,.183-.018,5.86,5.86,0,0,0,.947-1.144.137.137,0,0,0-.054-.193,1.767,1.767,0,0,1-.677-.7h0a1.7,1.7,0,0,1-.144-1.161h0a3.763,3.763,0,0,1,1.1-1.465h0L155.6,2.82a1.654,1.654,0,0,1,2.35-.012,1.675,1.675,0,0,1,.024,2.361l-.977,1a.171.171,0,0,0-.039.176,4.624,4.624,0,0,1,.13,2.267.02.02,0,0,0,.034.018L159.2,6.513a3.486,3.486,0,0,0-4.98-4.88l-2.131,2.175-.008.009Z" transform="translate(-147.307 0)" fill="#757f8e"/>
      <path id="패스_2422" data-name="패스 2422" d="M8.657,175.348h0l0,0a3.566,3.566,0,0,0,.309-2.534h0A3.5,3.5,0,0,0,7.557,170.8a.193.193,0,0,0-.214.01,3.384,3.384,0,0,0-.936,1.13.157.157,0,0,0,.062.2,1.75,1.75,0,0,1,.67.684h0a1.6,1.6,0,0,1,.17,1.051h0c-.075.576-.656,1.1-1.119,1.58h0l-1.6,1.637A1.67,1.67,0,0,1,2.2,174.759l.98-1.008a.171.171,0,0,0,.04-.173,4.873,4.873,0,0,1-.14-2.261.02.02,0,0,0-.034-.018L1,173.391a3.54,3.54,0,0,0,.025,4.956,3.5,3.5,0,0,0,4.93-.05,25.977,25.977,0,0,0,2.7-2.949Z" transform="translate(0 -165.903)" fill="#757f8e"/>
    </g>
    <rect id="사각형_2125" data-name="사각형 2125" width="16" height="16" transform="translate(500 260)" fill="none"/>
  </g>
</svg>
