<svg id="question_ic" xmlns="http://www.w3.org/2000/svg" width="15" height="15" viewBox="0 0 15 15">
  <g id="타원_44" data-name="타원 44" fill="none" stroke="#747e8d" stroke-width="1">
    <circle cx="7.5" cy="7.5" r="7.5" stroke="none"/>
    <circle cx="7.5" cy="7.5" r="7" fill="none"/>
  </g>
  <g id="그룹_1768" data-name="그룹 1768" transform="translate(5.029 3.537)">
    <path id="패스_1541" data-name="패스 1541" d="M225.736,181.208l-.131.141Z" transform="translate(-225.1 -180.523)" fill="#757f8e" stroke="#747e8d" stroke-width="0.3"/>
    <path id="패스_1542" data-name="패스 1542" d="M209.2,155.605a1.36,1.36,0,0,1,.3.885,1.326,1.326,0,0,1-.208.7,1.715,1.715,0,0,1-.3.37l-.417.412a3.225,3.225,0,0,0-.776,1.044,3.376,3.376,0,0,0-.177,1.2h.927a2.562,2.562,0,0,1,.149-.992,2.927,2.927,0,0,1,.648-.82,7.09,7.09,0,0,0,.914-1.01,1.6,1.6,0,0,0,.227-.9,1.975,1.975,0,0,0-.617-1.5,2.581,2.581,0,0,0-3.388.1,2.553,2.553,0,0,0-.636,1.809h.927a2.511,2.511,0,0,1,.213-1.037,1.483,1.483,0,0,1,2.21-.27Z" transform="translate(-205.853 -154.418)" fill="#757f8e" stroke="#747e8d" stroke-width="0.3"/>
    <rect id="사각형_1312" data-name="사각형 1312" width="1.037" height="1.083" transform="translate(1.755 6.666)" fill="#757f8e" stroke="#747e8d" stroke-width="0.3"/>
  </g>
</svg>
