<svg xmlns="http://www.w3.org/2000/svg" viewBox="0 0 1080 1080"><defs><style>.cls-1{fill:#fff;}</style></defs><title>coin-white</title><g id="Layer_3" data-name="Layer 3"><path class="cls-1" d="M540,0C241.77,0,0,241.77,0,540s241.77,540,540,540,540-241.77,540-540S838.23,0,540,0Zm57.4,884.4H396.5v57.4L281.7,827,396.5,712.2v57.4H597.4a86.1,86.1,0,1,0,0-172.2H396.5V482.6H540a86.1,86.1,0,0,0,0-172.2H396.5v57.4L281.7,253,396.5,138.2v57.4H540c110.78,0,200.9,90.12,200.9,200.9A199.71,199.71,0,0,1,703.5,513,200.89,200.89,0,0,1,798.3,683.5C798.3,794.28,708.18,884.4,597.4,884.4Z"/></g></svg>