<svg width="16" height="16" viewBox="0 0 16 16" fill="none" xmlns="http://www.w3.org/2000/svg">
<path d="M3.83498 15.047H12.066C12.3931 15.0465 12.7067 14.9163 12.938 14.685C13.1693 14.4537 13.2994 14.1401 13.3 13.813V5.113H10.419C10.0915 5.11274 9.77754 4.98253 9.54599 4.75098C9.31444 4.51943 9.18424 4.20546 9.18398 3.878V1H3.83398C3.50669 1.00053 3.19297 1.13085 2.96164 1.36237C2.7303 1.59389 2.60024 1.90771 2.59998 2.235V13.813C2.60051 14.1403 2.73082 14.454 2.96235 14.6853C3.19387 14.9167 3.50769 15.0467 3.83498 15.047ZM5.48098 6.789H10.42C10.5256 6.79421 10.6252 6.83984 10.6981 6.91644C10.771 6.99304 10.8117 7.09474 10.8117 7.2005C10.8117 7.30626 10.771 7.40796 10.6981 7.48456C10.6252 7.56116 10.5256 7.60679 10.42 7.612H5.48098C5.37535 7.60679 5.27577 7.56116 5.20285 7.48456C5.12993 7.40796 5.08927 7.30626 5.08927 7.2005C5.08927 7.09474 5.12993 6.99304 5.20285 6.91644C5.27577 6.83984 5.37535 6.79421 5.48098 6.789ZM5.48098 8.435H10.42C10.5256 8.44021 10.6252 8.48584 10.6981 8.56244C10.771 8.63904 10.8117 8.74074 10.8117 8.8465C10.8117 8.95226 10.771 9.05396 10.6981 9.13056C10.6252 9.20716 10.5256 9.25279 10.42 9.258H5.48098C5.37535 9.25279 5.27577 9.20716 5.20285 9.13056C5.12993 9.05396 5.08927 8.95226 5.08927 8.8465C5.08927 8.74074 5.12993 8.63904 5.20285 8.56244C5.27577 8.48584 5.37535 8.44021 5.48098 8.435ZM5.48098 10.081H10.42C10.5256 10.0862 10.6252 10.1318 10.6981 10.2084C10.771 10.285 10.8117 10.3867 10.8117 10.4925C10.8117 10.5983 10.771 10.7 10.6981 10.7766C10.6252 10.8532 10.5256 10.8988 10.42 10.904H5.48098C5.37535 10.8988 5.27577 10.8532 5.20285 10.7766C5.12993 10.7 5.08927 10.5983 5.08927 10.4925C5.08927 10.3867 5.12993 10.285 5.20285 10.2084C5.27577 10.1318 5.37535 10.0862 5.48098 10.081ZM5.48098 11.727H8.77297C8.8786 11.7322 8.97819 11.7778 9.0511 11.8544C9.12402 11.931 9.16468 12.0327 9.16468 12.1385C9.16468 12.2443 9.12402 12.346 9.0511 12.4226C8.97819 12.4992 8.8786 12.5448 8.77297 12.55H5.48098C5.37535 12.5448 5.27577 12.4992 5.20285 12.4226C5.12993 12.346 5.08927 12.2443 5.08927 12.1385C5.08927 12.0327 5.12993 11.931 5.20285 11.8544C5.27577 11.7778 5.37535 11.7322 5.48098 11.727Z" fill="#F0B923"/>
<path d="M10.42 4.292H13.06L10.008 1.241V3.881C10.0083 3.99009 10.0518 4.09463 10.129 4.17168C10.2063 4.24873 10.3109 4.292 10.42 4.292Z" fill="#F0B923"/>
</svg>
