<svg width="16" height="16" viewBox="0 0 16 16" fill="none" xmlns="http://www.w3.org/2000/svg">
<path d="M13.952 4.619C13.3445 3.56882 12.4717 2.6967 11.421 2.09C10.3628 1.46985 9.15651 1.14747 7.93 1.157C6.70348 1.14747 5.49722 1.46985 4.439 2.09C3.38833 2.6967 2.51552 3.56882 1.908 4.619C1.23548 5.78565 0.914845 7.12195 0.984755 8.46674C1.05467 9.81153 1.51214 11.1074 2.302 12.198C3.14708 13.3797 4.34789 14.2603 5.729 14.711C5.79003 14.7298 5.85464 14.7339 5.91755 14.7229C5.98047 14.712 6.0399 14.6863 6.091 14.648C6.12916 14.6139 6.15947 14.5719 6.17985 14.525C6.20022 14.478 6.21016 14.4272 6.209 14.376C6.209 14.358 6.209 14.195 6.209 13.887C6.209 13.579 6.209 13.3103 6.209 13.081L6.001 13.117C5.83571 13.1434 5.6683 13.1541 5.501 13.149C5.28995 13.1454 5.07957 13.1243 4.872 13.086C4.65091 13.0455 4.44276 12.9526 4.265 12.815C4.07808 12.6744 3.93853 12.4801 3.865 12.258L3.774 12.05C3.69336 11.8851 3.59295 11.7306 3.475 11.59C3.37344 11.4451 3.23824 11.3271 3.081 11.246L3.018 11.201C2.9744 11.1696 2.93478 11.133 2.9 11.092C2.86674 11.054 2.83943 11.0112 2.819 10.965C2.801 10.9223 2.816 10.889 2.864 10.865C2.94745 10.8317 3.03742 10.818 3.127 10.825L3.308 10.852C3.46972 10.8953 3.62175 10.969 3.756 11.069C3.93551 11.1914 4.08548 11.3523 4.195 11.54C4.31411 11.7659 4.48555 11.9599 4.695 12.106C4.86878 12.2287 5.0753 12.2966 5.288 12.301C5.46107 12.3034 5.63395 12.2883 5.804 12.256C5.9446 12.2271 6.08124 12.1814 6.211 12.12C6.24095 11.7654 6.39875 11.4339 6.655 11.187C6.34198 11.1563 6.03175 11.1018 5.727 11.024C5.42973 10.9423 5.14385 10.8237 4.876 10.671C4.5956 10.5184 4.34791 10.3121 4.147 10.064C3.93173 9.77879 3.77072 9.45643 3.672 9.113C3.54135 8.67242 3.47863 8.21449 3.486 7.755C3.47073 7.06337 3.72746 6.39335 4.201 5.889C3.97963 5.28518 4.00623 4.61828 4.275 4.034C4.54103 3.99092 4.81387 4.03365 5.054 4.156C5.31454 4.25287 5.56728 4.36955 5.81 4.505C5.97 4.60167 6.09833 4.683 6.195 4.749C7.33308 4.43508 8.53491 4.43508 9.673 4.749L10.017 4.532C10.2814 4.37259 10.5603 4.23866 10.85 4.132C11.0777 4.02122 11.3349 3.98618 11.584 4.032C11.7169 4.32 11.7917 4.63139 11.804 4.94833C11.8164 5.26527 11.7661 5.58154 11.656 5.879C12.1298 6.38325 12.3869 7.05324 12.372 7.745C12.3791 8.20612 12.3164 8.66565 12.186 9.108C12.0883 9.4528 11.9254 9.77564 11.706 10.059C11.5013 10.3034 11.2523 10.507 10.972 10.659C10.7041 10.8117 10.4183 10.9303 10.121 11.012C9.81625 11.0898 9.50602 11.1443 9.193 11.175C9.36105 11.3417 9.49036 11.5433 9.57176 11.7655C9.65316 11.9878 9.68465 12.2252 9.664 12.461V14.372C9.66265 14.4227 9.67203 14.4732 9.6915 14.5201C9.71097 14.5669 9.7401 14.6092 9.777 14.644C9.82719 14.6826 9.88595 14.7084 9.94828 14.7194C10.0106 14.7304 10.0747 14.7261 10.135 14.707C11.5165 14.2565 12.7177 13.3759 13.563 12.194C14.353 11.1034 14.8105 9.80757 14.8804 8.46275C14.9503 7.11793 14.6296 5.78161 13.957 4.615L13.952 4.619Z" fill="#F0B923"/>
</svg>
