<svg xmlns="http://www.w3.org/2000/svg" width="24" height="24" fill="none" viewBox="0 0 24 24">
    <path fill="#F0B923" d="M5.752 22.57H18.1c.49 0 .96-.196 1.308-.543.347-.347.542-.817.543-1.308V7.67h-4.322c-.49 0-.962-.195-1.31-.543-.346-.347-.542-.818-.542-1.309V1.5H5.75c-.491 0-.962.196-1.309.544-.347.347-.542.818-.542 1.308V20.72c0 .491.196.962.543 1.309.348.347.818.542 1.31.543zm2.47-12.386h7.408c.158.007.308.076.417.19.11.116.17.268.17.427 0 .158-.06.31-.17.426-.11.115-.259.183-.417.191H8.22c-.158-.008-.307-.076-.417-.191-.11-.115-.17-.268-.17-.426 0-.159.06-.311.17-.426.11-.115.259-.184.417-.191zm0 2.469h7.408c.158.007.308.076.417.19.11.116.17.268.17.427 0 .158-.06.31-.17.426-.11.115-.259.183-.417.191H8.22c-.158-.008-.307-.076-.417-.191-.11-.115-.17-.268-.17-.426 0-.159.06-.311.17-.426.11-.115.259-.184.417-.191zm0 2.468h7.408c.158.008.308.077.417.192.11.115.17.267.17.426 0 .158-.06.31-.17.426-.11.115-.259.183-.417.191H8.22c-.158-.008-.307-.076-.417-.191-.11-.115-.17-.268-.17-.426 0-.159.06-.311.17-.426.11-.115.259-.184.417-.192zm0 2.47h4.937c.159.007.308.076.418.19.109.116.17.268.17.427 0 .158-.061.31-.17.426-.11.115-.26.183-.418.191H8.221c-.158-.008-.307-.076-.417-.191-.11-.115-.17-.268-.17-.426 0-.159.06-.311.17-.426.11-.115.259-.184.417-.192z"/>
    <path fill="#F0B923" d="M15.63 6.438h3.96l-4.578-4.576v3.96c0 .163.066.32.181.436.116.115.273.18.437.18z"/>
</svg>
