<svg xmlns="http://www.w3.org/2000/svg" width="24" height="24" fill="none" viewBox="0 0 24 24">
    <path fill="#F0B923" d="M9.55 7.178c-.524.554-.923 1.215-1.168 1.937-.246.723-.332 1.49-.253 2.25.078.759.32 1.492.708 2.149.389.657.914 1.222 1.542 1.657.041.028.092.04.142.035.05-.005.096-.027.132-.062.544-.51 1.022-1.086 1.42-1.716.015-.024.025-.05.029-.079.003-.028.002-.056-.006-.083-.008-.027-.02-.053-.039-.075-.017-.022-.04-.04-.065-.053-.43-.248-.782-.611-1.015-1.05-.276-.536-.352-1.153-.216-1.741.36-.857.927-1.612 1.65-2.197l2.424-2.468c.23-.234.503-.42.805-.548.302-.128.626-.194.954-.196.328-.002.652.062.955.186.304.125.58.308.811.54.472.466.741 1.1.748 1.763.007.664-.25 1.303-.712 1.779l-1.466 1.5c-.033.034-.056.077-.066.123-.01.047-.008.095.008.14.347 1.1.414 2.269.195 3.401-.001.006 0 .013.002.019.003.006.008.01.013.014.006.003.013.004.02.003.006-.001.011-.004.016-.009l3.117-3.175c.97-.991 1.508-2.327 1.494-3.714-.014-1.386-.578-2.71-1.569-3.681-.99-.971-2.326-1.509-3.713-1.495-1.387.015-2.711.579-3.682 1.57L9.568 7.164l-.012.014H9.55z"/>
    <path fill="#F0B923" d="M15.381 15.62c.618-1.167.783-2.52.463-3.801-.316-1.23-1.066-2.303-2.113-3.021-.049-.03-.106-.044-.163-.042-.057.003-.112.023-.158.056-.586.456-1.066 1.035-1.404 1.696-.024.052-.028.112-.01.167.016.056.053.103.103.132.424.242.772.598 1.005 1.027.263.48.352 1.037.255 1.576-.113.864-.984 1.65-1.678 2.37l-2.4 2.455c-.466.47-1.098.737-1.76.742-.66.006-1.297-.25-1.77-.712-.473-.462-.744-1.092-.755-1.753-.01-.661.241-1.3.7-1.776l1.47-1.512c.032-.034.055-.076.066-.121.01-.046.008-.094-.007-.139-.335-1.098-.407-2.26-.21-3.391.002-.006.001-.013-.002-.019-.002-.006-.007-.01-.013-.014-.006-.003-.012-.004-.019-.003-.006.001-.012.004-.017.009l-3.069 3.138c-.967.998-1.506 2.335-1.499 3.725.007 1.39.559 2.721 1.537 3.709.993.966 2.328 1.5 3.713 1.486 1.385-.014 2.709-.575 3.682-1.561 1.462-1.368 2.816-2.847 4.05-4.423h.003z"/>
</svg>
