<svg xmlns="http://www.w3.org/2000/svg" width="24" height="24" fill="none" viewBox="0 0 24 24">
    <path fill="#F0B923" d="M19.936 7.492c-.81-1.4-1.974-2.563-3.375-3.372-1.41-.827-3.019-1.257-4.654-1.244-1.636-.013-3.244.417-4.655 1.244-1.4.809-2.565 1.972-3.375 3.372-.896 1.556-1.324 3.337-1.23 5.13.093 1.793.703 3.521 1.756 4.975 1.126 1.576 2.728 2.75 4.569 3.351.081.025.168.03.251.016.084-.015.164-.049.232-.1.05-.046.091-.102.118-.164.027-.063.04-.13.039-.199v-.652-1.074l-.277.048c-.22.035-.444.05-.667.042-.281-.005-.562-.033-.839-.084-.294-.054-.572-.178-.809-.361-.25-.188-.435-.447-.533-.743l-.122-.277c-.107-.22-.241-.426-.398-.613-.136-.194-.316-.35-.526-.459l-.084-.06c-.058-.042-.11-.09-.157-.145-.044-.051-.08-.108-.108-.17-.024-.057-.004-.101.06-.133.111-.044.231-.063.35-.053l.242.036c.216.057.418.156.597.289.24.163.44.378.586.628.158.301.387.56.666.755.232.163.507.254.791.26.23.003.461-.017.688-.06.187-.039.37-.1.543-.182.04-.472.25-.915.592-1.244-.418-.04-.831-.113-1.238-.217-.396-.109-.777-.267-1.134-.47-.374-.204-.704-.48-.972-.81-.287-.38-.502-.81-.634-1.268-.174-.588-.257-1.198-.248-1.81-.02-.923.322-1.816.954-2.489-.295-.805-.26-1.694.098-2.473.355-.057.719 0 1.039.163.347.129.684.284 1.008.465.213.129.384.237.513.325 1.518-.418 3.12-.418 4.638 0l.458-.289c.353-.213.725-.391 1.111-.533.304-.148.647-.195.979-.134.177.384.277.8.293 1.222.017.423-.05.844-.197 1.241.631.672.974 1.566.954 2.488.01.615-.074 1.227-.248 1.817-.13.46-.347.89-.64 1.268-.273.326-.605.598-.978.8-.357.204-.739.362-1.135.471-.406.104-.82.176-1.237.217.224.223.396.491.505.788.108.296.15.613.123.927v2.548c-.002.068.01.135.036.197.026.063.065.12.114.166.067.051.146.085.229.1.083.015.168.01.249-.016 1.842-.601 3.443-1.775 4.57-3.351 1.054-1.454 1.664-3.182 1.757-4.975.093-1.793-.334-3.575-1.231-5.13l-.007.005z"/>
</svg>
