<svg xmlns="http://www.w3.org/2000/svg" width="24" height="24" fill="none" viewBox="0 0 24 24">
    <path fill="#F0B923" d="M21.712 6.3c-.704.305-1.45.507-2.212.6.803-.477 1.404-1.231 1.688-2.121-.753.446-1.575.76-2.433.928-.526-.561-1.21-.952-1.96-1.121-.751-.169-1.535-.108-2.251.175s-1.33.775-1.763 1.412c-.432.636-.663 1.388-.663 2.158-.003.294.027.587.089.874-1.525-.074-3.017-.47-4.379-1.16-1.362-.69-2.563-1.66-3.525-2.846-.493.844-.646 1.844-.427 2.797.22.953.794 1.786 1.607 2.33-.608-.016-1.202-.178-1.733-.473V9.9c.002.885.308 1.742.868 2.428.56.685 1.338 1.158 2.204 1.337-.328.086-.667.129-1.006.126-.244.004-.488-.018-.726-.066.247.761.725 1.427 1.367 1.906.642.479 1.417.747 2.218.767-1.358 1.062-3.033 1.638-4.757 1.637-.307.002-.613-.016-.918-.053 1.754 1.13 3.798 1.729 5.884 1.722 1.437.01 2.86-.266 4.19-.812 1.328-.545 2.535-1.349 3.55-2.364 1.016-1.016 1.82-2.223 2.365-3.552.545-1.329.82-2.753.811-4.189 0-.17 0-.333-.014-.497.758-.54 1.411-1.215 1.926-1.99z"/>
</svg>
