<svg width="16" height="16" viewBox="0 0 16 16" fill="none" xmlns="http://www.w3.org/2000/svg">
<path d="M6.36697 4.78499C6.01718 5.15449 5.75138 5.59521 5.58776 6.07698C5.42414 6.55875 5.36658 7.07019 5.419 7.57628C5.47142 8.08237 5.6326 8.57115 5.89149 9.00915C6.15038 9.44716 6.50088 9.82404 6.91897 10.114C6.94691 10.1324 6.98035 10.1407 7.01367 10.1374C7.04698 10.1341 7.07815 10.1195 7.10197 10.096C7.46487 9.75637 7.7831 9.37195 8.04897 8.952C8.05876 8.93595 8.06514 8.91805 8.06771 8.89943C8.07029 8.88081 8.06901 8.86186 8.06394 8.84375C8.05888 8.82565 8.05014 8.80878 8.03828 8.7942C8.02641 8.77962 8.01167 8.76764 7.99497 8.759C7.7082 8.59368 7.47362 8.35113 7.31797 8.059C7.13413 7.70122 7.08311 7.28984 7.17397 6.89799C7.41436 6.3265 7.79221 5.82325 8.27397 5.433L9.88998 3.78799C10.043 3.63198 10.2254 3.50783 10.4266 3.42271C10.6278 3.33759 10.844 3.29319 11.0625 3.29207C11.281 3.29095 11.4975 3.33315 11.6996 3.41621C11.9017 3.49927 12.0854 3.62155 12.24 3.776C12.5549 4.08662 12.7342 4.50921 12.7387 4.95155C12.7432 5.39388 12.5725 5.82004 12.264 6.137L11.287 7.137C11.2647 7.15979 11.2493 7.18834 11.2424 7.21944C11.2355 7.25053 11.2374 7.28294 11.248 7.31299C11.4791 8.04611 11.5237 8.82527 11.378 9.58C11.3771 9.58425 11.3776 9.58868 11.3794 9.59262C11.3813 9.59656 11.3843 9.59979 11.3882 9.60183C11.392 9.60386 11.3964 9.60459 11.4007 9.6039C11.405 9.60321 11.409 9.60113 11.412 9.59799L13.49 7.481C14.1371 6.82061 14.4954 5.93019 14.486 5.00564C14.4766 4.08109 14.1004 3.19812 13.44 2.55099C12.7796 1.90387 11.8892 1.54558 10.9646 1.55496C10.0401 1.56434 9.1571 1.94061 8.50997 2.60099L6.37898 4.776L6.37097 4.78499H6.36697Z" fill="#F0B923"/>
<path d="M10.254 10.413C10.6661 9.63541 10.7762 8.73285 10.563 7.87899C10.3522 7.0594 9.85167 6.34392 9.15397 5.865C9.1213 5.84534 9.08354 5.8358 9.04546 5.83758C9.00737 5.83936 8.97066 5.85238 8.93997 5.875C8.54908 6.17867 8.22957 6.56441 8.00397 7.005C7.98789 7.04013 7.98532 7.07995 7.99676 7.11685C8.0082 7.15375 8.03284 7.18513 8.06597 7.205C8.34855 7.36628 8.58056 7.60315 8.73597 7.889C8.91095 8.20966 8.97094 8.58053 8.90597 8.94C8.83097 9.516 8.24997 10.04 7.78697 10.52L6.18697 12.157C5.87676 12.4701 5.45533 12.6479 5.01458 12.6516C4.57382 12.6553 4.14948 12.4846 3.83407 12.1767C3.51866 11.8688 3.33776 11.4487 3.33081 11.008C3.32386 10.5673 3.49143 10.1417 3.79697 9.824L4.77697 8.81601C4.79884 8.7936 4.81413 8.76561 4.82119 8.7351C4.82824 8.7046 4.82678 8.67274 4.81697 8.643C4.59334 7.9108 4.54538 7.1362 4.67697 6.382C4.67788 6.37775 4.67737 6.37331 4.67553 6.36937C4.67369 6.36543 4.67061 6.3622 4.66677 6.36017C4.66292 6.35813 4.65852 6.3574 4.65423 6.35809C4.64993 6.35878 4.64598 6.36086 4.64297 6.364L2.59697 8.45601C1.95167 9.121 1.59284 10.0125 1.59752 10.9391C1.60219 11.8657 1.97 12.7535 2.62197 13.412C3.2841 14.0558 4.17382 14.4117 5.09727 14.4024C6.02071 14.393 6.90303 14.019 7.55197 13.362C8.5264 12.4498 9.42907 11.4639 10.252 10.413H10.254Z" fill="#F0B923"/>
</svg>
