<svg width="16" height="16" viewBox="0 0 16 16" fill="none" xmlns="http://www.w3.org/2000/svg">
<path d="M14.475 4.19999C14.0051 4.40346 13.5083 4.53818 13 4.59999C13.5355 4.28227 13.9357 3.77915 14.125 3.18599C13.6236 3.48332 13.075 3.69267 12.503 3.80499C12.1524 3.43035 11.6972 3.16984 11.1966 3.05735C10.696 2.94486 10.1731 2.98559 9.69591 3.17424C9.21874 3.36288 8.80936 3.69072 8.521 4.11513C8.23264 4.53954 8.07863 5.04089 8.079 5.55399C8.07691 5.74992 8.0967 5.94546 8.138 6.13699C7.12132 6.08725 6.12655 5.82365 5.21865 5.36341C4.31074 4.90317 3.5101 4.25663 2.869 3.46599C2.53987 4.02861 2.43794 4.69566 2.58401 5.3309C2.73009 5.96614 3.11317 6.52165 3.655 6.88399C3.25032 6.87306 2.8542 6.76503 2.5 6.56899V6.59999C2.50129 7.18991 2.70557 7.76141 3.07851 8.21848C3.45145 8.67556 3.97034 8.99036 4.548 9.10999C4.32905 9.16762 4.1034 9.19587 3.877 9.19399C3.71455 9.19676 3.55228 9.18201 3.393 9.14999C3.55825 9.65767 3.87682 10.1016 4.30483 10.4208C4.73285 10.7399 5.24927 10.9185 5.783 10.932C4.87773 11.64 3.76126 12.0241 2.612 12.023C2.40746 12.0244 2.20304 12.0127 2 11.988C3.1693 12.7416 4.53189 13.1403 5.923 13.136C6.88049 13.1424 7.82972 12.9585 8.71555 12.595C9.60138 12.2315 10.4062 11.6956 11.0832 11.0185C11.7602 10.3414 12.296 9.5365 12.6594 8.65062C13.0227 7.76473 13.2065 6.81549 13.2 5.85799C13.2 5.74499 13.2 5.63599 13.191 5.52699C13.6962 5.16647 14.1313 4.71677 14.475 4.19999Z" fill="#F0B923"/>
</svg>
