<svg width="254" height="27" viewBox="0 0 254 27" fill="none" xmlns="http://www.w3.org/2000/svg">
<path d="M21.8505 0.489014H11.0786C10.81 0.488916 10.5461 0.559613 10.3135 0.693909C10.0809 0.828204 9.88775 1.02137 9.75354 1.25403L4.36755 10.582C4.23317 10.8146 4.16241 11.0785 4.16241 11.347C4.16241 11.6156 4.23317 11.8795 4.36755 12.1121L9.75354 21.441L12.4025 19.9111L7.45856 11.347L11.9586 3.54706H20.9635L25.9075 12.111L28.5565 10.5811L23.1705 1.25305C23.0366 1.02132 22.8443 0.828773 22.6126 0.694702C22.381 0.560631 22.1182 0.489691 21.8505 0.489014V0.489014Z" fill="#9C6CFF"/>
<path d="M18.9555 5.55811L16.3065 7.08813L21.2505 15.6511L16.7505 23.4511H7.74451L2.80054 14.8871L0.151489 16.4171L5.53754 25.7461C5.67174 25.9787 5.86481 26.172 6.09741 26.3063C6.33002 26.4406 6.5939 26.5112 6.86249 26.5111H17.6305C17.8991 26.5111 18.1629 26.4404 18.3955 26.3062C18.6281 26.1719 18.8212 25.9787 18.9555 25.7461L24.3405 16.4171C24.4749 16.1846 24.5457 15.9207 24.5457 15.6521C24.5457 15.3835 24.4749 15.1197 24.3405 14.8871L18.9555 5.55811Z" fill="#05D2DD"/>
<path d="M37.5775 7.74194H41.9296C45.3496 7.74194 47.6555 9.94194 47.6555 13.0859C47.6555 16.2299 45.3496 18.4299 41.9296 18.4299H37.5775V7.74194ZM41.8685 17.4529C44.7085 17.4529 46.5405 15.6529 46.5405 13.0859C46.5405 10.5189 44.7085 8.71893 41.8685 8.71893H38.7075V17.4529H41.8685Z" fill="#0E1014"/>
<path d="M41.9294 18.5918H37.4165V7.58081H41.9294C45.3954 7.58081 47.8165 9.84482 47.8165 13.0858C47.8165 16.3268 45.3954 18.5918 41.9294 18.5918ZM37.7385 18.2698H41.9294C45.2574 18.2698 47.4945 16.1868 47.4945 13.0868C47.4945 9.98679 45.2574 7.90381 41.9294 7.90381H37.7385V18.2698ZM41.8685 17.6148H38.5465V8.55878H41.8685C44.7595 8.55878 46.7015 10.3788 46.7015 13.0868C46.7015 15.7948 44.7595 17.6148 41.8665 17.6148H41.8685ZM38.8685 17.2928H41.8685C44.5685 17.2928 46.3795 15.6028 46.3795 13.0868C46.3795 10.5708 44.5665 8.8808 41.8685 8.8808H38.8685V17.2928Z" fill="#0E1014"/>
<path d="M57.6725 17.4529V18.4299H50.1145V7.74194H57.4435V8.71893H51.2435V12.5189H56.7715V13.4809H51.2435V17.4509L57.6725 17.4529Z" fill="#0E1014"/>
<path d="M57.8345 18.5918H49.9535V7.58081H57.6055V8.8808H51.4055V12.3598H56.9335V13.6448H51.4055V17.2928H57.8335L57.8345 18.5918ZM50.2765 18.2698H57.5125V17.6148H51.0804V13.3228H56.6085V12.6828H51.0804V8.55878H57.2805V7.90381H50.2805L50.2765 18.2698Z" fill="#0E1014"/>
<path d="M61.3835 8.71893V12.9189H66.9115V13.8959H61.3835V18.4309H60.2535V7.74292H67.5825V8.71991L61.3835 8.71893Z" fill="#0E1014"/>
<path d="M61.5494 18.592H60.0975V7.58105H67.7495V8.88104H61.5494V12.7581H67.0775V14.058H61.5494V18.592ZM60.4194 18.27H61.2264V13.735H66.7545V13.08H61.2264V8.55804H67.4265V7.90302H60.4194V18.27Z" fill="#0E1014"/>
<path d="M69.8434 7.74194H70.9734V18.4299H69.8434V7.74194Z" fill="#0E1014"/>
<path d="M71.1345 18.5918H69.6824V7.58081H71.1345V18.5918ZM70.0045 18.2698H70.8115V7.90778H70.0045V18.2698Z" fill="#0E1014"/>
<path d="M73.3564 17.132L73.7994 16.262C74.7743 17.1159 76.0307 17.5789 77.3265 17.562C79.3265 17.562 80.1965 16.722 80.1965 15.669C80.1965 12.737 73.6155 14.539 73.6155 10.584C73.6155 9.011 74.8375 7.65199 77.5555 7.65199C78.7285 7.63887 79.8797 7.96799 80.8685 8.59901L80.4865 9.49903C79.613 8.93221 78.5967 8.62492 77.5555 8.61299C75.6005 8.61299 74.7305 9.48401 74.7305 10.552C74.7305 13.484 81.3115 11.713 81.3115 15.606C81.3115 17.179 80.0595 18.522 77.3265 18.522C75.8759 18.5718 74.4592 18.0758 73.3564 17.132V17.132Z" fill="#0E1014"/>
<path d="M77.3254 18.6829C75.8304 18.7379 74.3702 18.2237 73.2395 17.244L73.1605 17.161L73.7545 15.992L73.9115 16.146C74.8568 16.9697 76.0729 17.4155 77.3265 17.398C79.0485 17.398 80.0355 16.767 80.0355 15.666C80.0355 14.436 78.7355 14.1199 77.2355 13.7539C75.4635 13.3219 73.4545 12.833 73.4545 10.581C73.4545 9.08096 74.5314 7.48794 77.5544 7.48794C78.7588 7.4744 79.9407 7.8137 80.9545 8.46395L81.0615 8.53896L80.5535 9.73898L80.3925 9.63894C79.5444 9.09 78.5586 8.79189 77.5485 8.77895C75.8805 8.77895 74.8855 9.44397 74.8855 10.557C74.8855 11.792 76.1915 12.111 77.7035 12.481C79.4675 12.912 81.4655 13.4 81.4655 15.611C81.4725 17.093 80.3834 18.6829 77.3254 18.6829ZM73.5525 17.101C74.6216 17.954 75.9583 18.4004 77.3254 18.361C80.1444 18.361 81.1495 16.938 81.1495 15.606C81.1495 13.648 79.3625 13.206 77.6335 12.789C76.1265 12.421 74.5685 12.041 74.5685 10.552C74.5685 9.00296 76.1114 8.45193 77.5544 8.45193C78.5617 8.46418 79.5477 8.7437 80.4115 9.26193L80.6675 8.66195C79.7281 8.09752 78.6503 7.80502 77.5544 7.81698C74.7684 7.81698 73.7765 9.24798 73.7765 10.588C73.7765 12.588 75.5765 13.024 77.3125 13.448C78.8785 13.83 80.3585 14.1899 80.3585 15.6729C80.3585 16.9589 79.2245 17.7279 77.3265 17.7279C76.0637 17.736 74.8359 17.3127 73.8464 16.528L73.5525 17.101Z" fill="#0E1014"/>
<path d="M86.1515 8.71893H82.3965V7.74194H91.0394V8.71893H87.2834V18.4299H86.1534L86.1515 8.71893Z" fill="#0E1014"/>
<path d="M87.4435 18.592H85.9915V8.88104H82.2355V7.58105H91.2004V8.88104H87.4445L87.4435 18.592ZM86.3135 18.27H87.1215V8.55902H90.8774V7.90405H82.5575V8.55902H86.3135V18.27Z" fill="#0E1014"/>
<path d="M98.9326 15.575H92.9775L91.6945 18.4299H90.5185L95.4045 7.74194H96.5185L101.404 18.4299H100.214L98.9326 15.575ZM98.5204 14.6589L95.9555 8.91791L93.3904 14.6589H98.5204Z" fill="#0E1014"/>
<path d="M101.658 18.5918H100.112L98.8286 15.7368H93.0825L91.7995 18.5918H90.2685L95.3026 7.58081H96.6235L101.658 18.5918ZM100.32 18.2698H101.155L96.4164 7.90381H95.5085L90.7695 18.2698H91.5895L92.8725 15.4148H99.0364L100.32 18.2698ZM98.7685 14.8208H93.1435L95.9575 8.52081L98.7685 14.8208ZM93.6385 14.4988H98.2715L95.9545 9.31378L93.6385 14.4988Z" fill="#0E1014"/>
<path d="M104.645 8.71893H100.889V7.74194H109.531V8.71893H105.775V18.4299H104.645V8.71893Z" fill="#0E1014"/>
<path d="M105.936 18.5918H104.484V8.8808H100.728V7.58081H109.692V8.8808H105.936V18.5918ZM104.806 18.2698H105.613V8.55878H109.369V7.90381H101.048V8.55878H104.805L104.806 18.2698Z" fill="#0E1014"/>
<path d="M111.257 7.74194H112.387V18.4299H111.257V7.74194Z" fill="#0E1014"/>
<path d="M112.548 18.5918H111.096V7.58081H112.548V18.5918ZM111.418 18.2698H112.225V7.90778H111.418V18.2698Z" fill="#0E1014"/>
<path d="M114.844 13.0858C114.836 12.3541 114.977 11.6283 115.259 10.9529C115.541 10.2774 115.957 9.66667 116.484 9.15787C117.009 8.64899 117.634 8.25273 118.318 7.99344C119.002 7.73415 119.732 7.61727 120.463 7.64987C121.193 7.61934 121.921 7.73783 122.604 7.99814C123.286 8.25845 123.908 8.65507 124.432 9.16385C124.957 9.67249 125.371 10.2826 125.652 10.9569C125.932 11.6312 126.072 12.3556 126.063 13.0858C126.072 13.8161 125.932 14.5405 125.652 15.2148C125.371 15.8891 124.957 16.4992 124.432 17.0078C123.908 17.5166 123.286 17.9132 122.604 18.1736C121.921 18.4339 121.193 18.5524 120.463 18.5219C119.732 18.5545 119.002 18.4375 118.318 18.1783C117.634 17.919 117.009 17.5227 116.484 17.0138C115.957 16.505 115.541 15.8942 115.259 15.2188C114.977 14.5434 114.836 13.8176 114.844 13.0858V13.0858ZM124.937 13.0858C124.951 12.4967 124.844 11.911 124.624 11.3645C124.403 10.8181 124.073 10.3224 123.655 9.90787C123.236 9.49334 122.737 9.16864 122.188 8.95371C121.639 8.73877 121.052 8.63812 120.463 8.65787C119.873 8.63736 119.285 8.73723 118.735 8.95145C118.185 9.16567 117.684 9.48973 117.264 9.90384C116.842 10.318 116.509 10.8138 116.286 11.3609C116.062 11.908 115.952 12.4949 115.963 13.0858C115.952 13.6769 116.062 14.2641 116.285 14.8114C116.509 15.3587 116.842 15.8546 117.264 16.2688C117.684 16.6828 118.185 17.0067 118.735 17.2208C119.286 17.4348 119.874 17.5345 120.463 17.5138C121.052 17.5336 121.639 17.4329 122.188 17.218C122.737 17.0031 123.236 16.6784 123.655 16.2638C124.073 15.8493 124.403 15.3537 124.624 14.8072C124.844 14.2608 124.951 13.675 124.937 13.0858Z" fill="#0E1014"/>
<path d="M120.464 18.6829C119.712 18.7119 118.962 18.5882 118.26 18.3194C117.557 18.0506 116.917 17.6422 116.376 17.1189C115.836 16.5955 115.408 15.968 115.117 15.2743C114.826 14.5806 114.678 13.8352 114.683 13.0829C114.678 12.3307 114.826 11.5852 115.117 10.8915C115.408 10.1978 115.836 9.57033 116.376 9.04691C116.917 8.52361 117.557 8.11522 118.26 7.84641C118.962 7.5776 119.712 7.45392 120.464 7.48289C121.214 7.45481 121.963 7.57922 122.664 7.84855C123.365 8.11788 124.005 8.52655 124.543 9.04991C125.082 9.57337 125.509 10.2007 125.799 10.8938C126.089 11.587 126.235 12.3317 126.229 13.0829C126.235 13.8341 126.089 14.5788 125.799 15.272C125.509 15.9652 125.082 16.5924 124.543 17.1159C124.005 17.6392 123.365 18.048 122.664 18.3173C121.963 18.5866 121.214 18.711 120.464 18.6829V18.6829ZM120.464 7.81089C119.753 7.77434 119.042 7.88441 118.375 8.13419C117.709 8.38398 117.1 8.76817 116.589 9.26292C116.077 9.75756 115.672 10.3522 115.4 11.0099C115.127 11.6675 114.993 12.3742 115.006 13.0859C114.993 13.7976 115.127 14.5043 115.4 15.162C115.672 15.8196 116.077 16.4143 116.589 16.9089C117.1 17.4037 117.709 17.7879 118.375 18.0376C119.042 18.2874 119.753 18.3975 120.464 18.3609C121.171 18.388 121.877 18.2713 122.539 18.018C123.2 17.7646 123.804 17.3798 124.313 16.8869C124.821 16.394 125.224 15.8032 125.498 15.1501C125.772 14.497 125.911 13.7951 125.907 13.0869C125.911 12.3787 125.772 11.6768 125.498 11.0237C125.224 10.3706 124.821 9.7798 124.313 9.2869C123.804 8.79394 123.2 8.4092 122.539 8.15586C121.877 7.90252 121.171 7.78583 120.464 7.81291V7.81089ZM120.464 17.6749C119.852 17.6934 119.243 17.5878 118.673 17.3644C118.104 17.1409 117.585 16.8043 117.15 16.3749C116.713 15.946 116.369 15.4332 116.136 14.8673C115.904 14.3015 115.789 13.6945 115.797 13.0829C115.789 12.4713 115.904 11.8643 116.136 11.2985C116.369 10.7327 116.713 10.2199 117.15 9.79093C117.585 9.36154 118.104 9.02493 118.673 8.80149C119.243 8.57805 119.852 8.47237 120.464 8.49088C121.073 8.47335 121.679 8.57952 122.247 8.80296C122.814 9.02639 123.33 9.36251 123.763 9.79093C124.197 10.2197 124.539 10.7319 124.768 11.2965C124.998 11.8611 125.111 12.4664 125.1 13.0759C125.111 13.6854 124.998 14.2907 124.768 14.8553C124.539 15.4199 124.197 15.9322 123.763 16.3609C123.331 16.7919 122.816 17.1305 122.248 17.3564C121.681 17.5822 121.074 17.6906 120.464 17.6749V17.6749ZM120.464 8.81889C119.893 8.79393 119.323 8.88674 118.79 9.09147C118.256 9.2962 117.771 9.60845 117.364 10.0089C116.956 10.4091 116.636 10.8888 116.422 11.4181C116.208 11.9475 116.105 12.5151 116.12 13.0859C116.105 13.6567 116.208 14.2244 116.422 14.7537C116.636 15.283 116.956 15.7627 117.364 16.1629C117.771 16.5633 118.256 16.8756 118.79 17.0803C119.323 17.285 119.893 17.3778 120.464 17.3529C121.032 17.3752 121.6 17.2802 122.13 17.0737C122.661 16.8673 123.143 16.5538 123.547 16.1529C123.952 15.7527 124.27 15.2735 124.481 14.7452C124.693 14.2168 124.793 13.6507 124.776 13.0819C124.793 12.5131 124.693 11.9469 124.481 11.4186C124.27 10.8903 123.952 10.4111 123.547 10.0109C123.143 9.61 122.661 9.29657 122.13 9.09013C121.6 8.88368 121.032 8.78862 120.464 8.81089V8.81889Z" fill="#0E1014"/>
<path d="M137.459 7.74194V18.4299H136.527L129.656 9.7569V18.4299H128.526V7.74194H129.458L136.344 16.4149V7.74194H137.459Z" fill="#0E1014"/>
<path d="M137.62 18.592H136.449L129.818 10.221V18.592H128.365V7.58105H129.536L129.583 7.64203L136.183 15.953V7.58105H137.62V18.592ZM136.605 18.27H137.298V7.90802H136.506V16.882L129.381 7.90802H128.688V18.274H129.496V9.29901L136.605 18.27Z" fill="#0E1014"/>
<path d="M247.217 5.98901H224.48C220.818 5.98901 217.849 9.12302 217.849 12.989C217.849 16.855 220.818 19.989 224.48 19.989H247.217C250.879 19.989 253.849 16.855 253.849 12.989C253.849 9.12302 250.879 5.98901 247.217 5.98901Z" fill="#FDCE32"/>
<path d="M230.461 12.713C230.947 12.452 231.271 11.975 231.271 11.327C231.271 10.328 230.461 9.68901 228.949 9.68901H225.997V15.989H229.129C230.749 15.989 231.595 15.359 231.595 14.279C231.595 13.46 231.136 12.929 230.461 12.713ZM228.823 10.607C229.633 10.607 230.092 10.895 230.092 11.48C230.092 12.056 229.633 12.344 228.823 12.344H227.167V10.607H228.823ZM229.057 15.071H227.167V13.253H229.057C229.939 13.253 230.416 13.532 230.416 14.162C230.416 14.792 229.939 15.071 229.057 15.071ZM237.164 13.613C237.164 12.11 236.138 11.129 234.734 11.129C233.303 11.129 232.25 12.155 232.25 13.586C232.25 15.017 233.294 16.052 234.905 16.052C235.733 16.052 236.408 15.782 236.84 15.269L236.237 14.576C235.895 14.927 235.472 15.098 234.932 15.098C234.095 15.098 233.51 14.648 233.375 13.946H237.146C237.155 13.838 237.164 13.703 237.164 13.613ZM234.734 12.029C235.472 12.029 236.003 12.506 236.093 13.199H233.366C233.474 12.497 234.005 12.029 234.734 12.029ZM240.729 14.927C240.558 15.062 240.333 15.125 240.099 15.125C239.667 15.125 239.433 14.873 239.433 14.405V12.119H240.72V11.219H239.433V10.121H238.308V11.219H237.516V12.119H238.308V14.432C238.308 15.494 238.911 16.052 239.964 16.052C240.369 16.052 240.774 15.944 241.044 15.728L240.729 14.927ZM243.715 11.129C242.941 11.129 242.194 11.327 241.681 11.723L242.122 12.542C242.482 12.245 243.04 12.065 243.58 12.065C244.381 12.065 244.777 12.452 244.777 13.109V13.181H243.535C242.077 13.181 241.537 13.811 241.537 14.612C241.537 15.449 242.23 16.052 243.328 16.052C244.048 16.052 244.57 15.818 244.84 15.404V15.989H245.902V13.172C245.902 11.786 245.101 11.129 243.715 11.129ZM243.562 15.233C242.986 15.233 242.644 14.972 242.644 14.567C242.644 14.216 242.851 13.928 243.616 13.928H244.777V14.486C244.588 14.981 244.111 15.233 243.562 15.233Z" fill="#0E1014"/>
<path d="M152.668 11.7664L151.312 15.469L149.965 11.7664H148.984L147.609 15.4503L146.291 11.7664H145.188L147.02 16.7594H148.142L149.451 13.3185L150.742 16.7594H151.864L153.706 11.7664H152.668Z" fill="#F0B90B"/>
<path d="M155.005 10.9435C155.444 10.9435 155.753 10.6256 155.753 10.2142C155.753 9.83087 155.435 9.54102 155.005 9.54102C154.575 9.54102 154.257 9.84957 154.257 10.2423C154.257 10.635 154.575 10.9435 155.005 10.9435ZM154.416 16.7594H155.584V11.7664H154.416V16.7594Z" fill="#F0B90B"/>
<path d="M159.699 15.656C159.521 15.7963 159.288 15.8617 159.045 15.8617C158.596 15.8617 158.353 15.5999 158.353 15.1137V12.7388H159.69V11.8038H158.353V10.663H157.184V11.8038H156.361V12.7388H157.184V15.1418C157.184 16.2451 157.81 16.8248 158.904 16.8248C159.325 16.8248 159.746 16.7126 160.026 16.4882L159.699 15.656Z" fill="#F0B90B"/>
<path d="M163.727 11.7103C163.035 11.7103 162.446 11.9347 162.063 12.3461V9.82152H160.894V16.7594H162.063V14.2348C162.063 13.2343 162.624 12.7294 163.456 12.7294C164.204 12.7294 164.644 13.1595 164.644 14.0478V16.7594H165.812V13.8982C165.812 12.3928 164.924 11.7103 163.727 11.7103Z" fill="#F0B90B"/>
<path d="M174.442 13.3559C174.947 13.0847 175.284 12.5892 175.284 11.916C175.284 10.8781 174.442 10.2142 172.871 10.2142H169.804V16.7594H173.058C174.741 16.7594 175.62 16.1049 175.62 14.9828C175.62 14.132 175.143 13.5803 174.442 13.3559ZM172.74 11.1679C173.582 11.1679 174.059 11.4672 174.059 12.0749C174.059 12.6733 173.582 12.9725 172.74 12.9725H171.02V11.1679H172.74ZM172.984 15.8056H171.02V13.9169H172.984C173.9 13.9169 174.395 14.2068 174.395 14.8613C174.395 15.5158 173.9 15.8056 172.984 15.8056Z" fill="#F0B90B"/>
<path d="M176.824 16.7594H178.04V10.2142H176.824V16.7594Z" fill="#F0B90B"/>
<path d="M184.326 10.2142V14.6462L180.717 10.2142H179.716V16.7594H180.923V12.3274L184.532 16.7594H185.532V10.2142H184.326Z" fill="#F0B90B"/>
<path d="M192.092 16.7594H193.364L190.409 10.2142H189.212L186.267 16.7594H187.52L188.165 15.2446H191.437L192.092 16.7594ZM188.576 14.2909L189.801 11.4298L191.035 14.2909H188.576Z" fill="#F0B90B"/>
<path d="M198.712 10.2142V14.6462L195.103 10.2142H194.103V16.7594H195.309V12.3274L198.918 16.7594H199.918V10.2142H198.712Z" fill="#F0B90B"/>
<path d="M204.608 16.8529C205.683 16.8529 206.6 16.4695 207.207 15.7589L206.422 15.0109C205.945 15.5345 205.356 15.7869 204.674 15.7869C203.318 15.7869 202.336 14.8332 202.336 13.4868C202.336 12.1404 203.318 11.1866 204.674 11.1866C205.356 11.1866 205.945 11.4391 206.422 11.9534L207.207 11.2147C206.6 10.5041 205.683 10.1207 204.617 10.1207C202.607 10.1207 201.111 11.5326 201.111 13.4868C201.111 15.441 202.607 16.8529 204.608 16.8529Z" fill="#F0B90B"/>
<path d="M209.494 15.7402V13.9356H212.655V12.9351H209.494V11.2334H213.057V10.2142H208.279V16.7594H213.188V15.7402H209.494Z" fill="#F0B90B"/>
</svg>
